<svg xmlns="http://www.w3.org/2000/svg" viewBox="0 0 4680 3120" xmlns:v="https://vecta.io/nano"><style><![CDATA[.B{fill:#fff}.C{fill:#72d6e5}.D{fill:#c8e9f1}.E{fill:#004f66}.F{fill:#009fc4}.G{fill:#008c7e}.H{fill:#333435}.I{fill:#ffb699}.J{fill:#00d6bc}.K{fill:#fefefe}.L{fill:#fc9f7e}.M{fill:#ffcab0}.N{fill:#00b1a0}.O{fill:#01323d}]]></style><path d="M1783.899 521.628c0 17.577-11.74 32.408-27.821 37.084-3.426.993-7.053 1.529-10.803 1.529-21.326 0-38.613-17.286-38.613-38.613 0-7.075 1.897-13.704 5.223-19.407 6.685-11.494 19.139-19.217 33.39-19.217 21.337 0 38.624 17.298 38.624 38.624zm2024.977 765.71c0 17.577-11.74 32.408-27.821 37.084-3.426.993-7.053 1.529-10.803 1.529-21.326 0-38.613-17.286-38.613-38.613 0-7.075 1.897-13.704 5.223-19.407 6.685-11.494 19.139-19.217 33.39-19.217 21.337 0 38.624 17.297 38.624 38.624zm-1797.38-765.716c0 39.874-32.319 72.203-72.204 72.203-14.262 0-27.565-4.14-38.758-11.271-20.11-12.823-33.446-35.321-33.446-60.932s13.336-48.11 33.446-60.932c11.193-7.131 24.496-11.271 38.758-11.271 39.886 0 72.204 32.33 72.204 72.203zM3842.461 1529.92c0 39.874-32.319 72.204-72.204 72.204-14.262 0-27.564-4.14-38.758-11.271-20.11-12.823-33.446-35.321-33.446-60.932s13.336-48.11 33.446-60.932c11.193-7.131 24.496-11.271 38.758-11.271 39.885-.001 72.204 32.328 72.204 72.202z" class="D"/><path fill="#e5ebff" d="M2865.388 2612.467l1.756 3.175c-13.604 1.134-28.385 1.211-1.756-3.175z"/><path d="M3842.461 2040.351c-.294 236.051-154.135 436.036-366.906 505.604-52.341 17.116-108.25 26.334-166.32 26.258-24.36-.033-47.989 2.945-70.865 7.92-65.215 14.138-124.353 44.444-176.935 67.385-80.848 35.28-146.193 53.149-194.291-31.876 13.036-1.08 24.971-3.142-1.756-3.175-118.113-.153-49.571 44.629-154.255 5.967-85.778-31.691-201.469 63.48-273.927 10.277-69.36 27.393-303.655-61.08-381.186-55.037-56.803 222.087-411.153 12.578-659.356-3.011-9.24-.578-18.328-.895-27.251-.906-294.12-.382-532.233-239.116-531.873-533.226.24-187.233 97.08-351.775 243.306-446.542-14.815-59.705-22.658-122.149-22.571-186.436.24-186.186 66.753-356.804 177.219-489.546 110.902-133.298 266.106-228.404 442.975-262.767 47.946-9.306 97.484-14.16 148.156-14.095 54.589.065 107.825 5.847 159.175 16.745 47.815-49.026 100.767-93.033 157.974-131.149 154.659-103.036 340.451-163.004 540.24-162.742 537.611.676 972.874 437.051 972.186 974.651-.11 93.862-13.528 184.582-38.423 270.437 136.146 96.613 224.902 255.602 224.684 435.264z" class="D"/><g class="C"><path d="M2547.416 1702.605h-4.256c-6.076 0-11.001 4.925-11.001 11.001v1.9h-17.16v-1.9c0-6.076-4.925-11.001-11.001-11.001h-4.257c-6.075 0-11 4.925-11 11.001v1.9h-17.161v-1.9c0-6.076-4.925-11.001-11-11.001h-110.681-7.367-72.507-165.875v-116.396h147.867 20.003 62.204c20.931 9.667 46.353 8.402 66.796-5.843l130.816-91.158-2.308 12.526a242.48 242.48 0 0 0-2.967 21.323l-.146 1.61c-5.818 66.303 16.087 130.131 57.348 178.315-4.709 1.245-8.187 5.523-8.187 10.624v1.9h-17.16v-1.9c.001-6.076-4.925-11.001-11-11.001zm-707.638-116.396h23.288 31.982 43.661 52.194v116.396h-87.988-49.998a14.94 14.94 0 0 0-14.938 14.938v5.161a14.94 14.94 0 0 0 14.938 14.938h49.998 282.029 85.08 79.874 227.711l-.075.315h-792.083c.949-.824 1.896-1.663 2.835-2.538l.341-.318c19.944-18.646 41.392-44.291 32.676-72.536-5.425-17.582-16.453-25.834-30.208-29.501 11.712-34.842 2.694-74.73-25.854-101.104 4.214-1.872 8.393-3.969 12.53-6.276.809 33.561 28.249 60.525 62.007 60.525zm1709.272 217.48c-6.207-44.215-32.291-83.836-55.069-123.197-8.454-14.596-20.117-29.782-37.102-32.945-18.12-3.371-35.095 8.4-46.757 21.666-8.477 9.644-15.469 20.455-20.858 32.007-8.269-9.142-17.455-17.269-27.873-23.847-30.404-19.2-73.997-21.011-98.99 5.149-7.942 8.324-13.135 18.349-16.113 29.247-8.531-2.847-17.367-4.691-26.378-5.291-16.942-1.135-35.4 2.826-46.625 15.567-4.091 4.636-6.971 10.167-9.284 15.917h-167.455l-8.051-134.847v-122.378h-1.822c9.513-18.404 23.575-34.571 38.913-48.316 2.204 17.062 7.156 33.349 13.484 48.316H3032v214.2c0 23.716 19.233 42.96 42.96 42.96h47.738c23.727 0 42.971-19.244 42.971-42.96v-214.2h-24.808c9.698-52.407 45.022-98.607 45.022-98.607l-44.259-12.098c3.251-12.6 6.109-20.411 6.109-20.411l-60.109 2.018-66.578-65.007c-9.469 2.716-18.273 6.109-26.466 10.08l-25.178-12.982-11.803-197.575c-1.505-25.145-20.411-45.786-45.338-49.484l-2.76 1.178c-.055-.022-.109-.055-.164-.087l-6.633-44.007-.415.164-.797-13.276c15.415-16.113 26.422-36.644 30.797-59.88 3.12 1.669 6.589 2.782 10.32 3.196a28.38 28.38 0 0 0 15.84-2.804c8.466-4.178 14.684-12.458 15.797-22.516a28.55 28.55 0 0 0-5.836-20.705 3.79 3.79 0 0 0-.262-.327c-.065-.098-.153-.196-.229-.284a27.56 27.56 0 0 0-2.084-2.28c-.272-.284-.578-.556-.872-.829-.349-.316-.709-.622-1.069-.917l-.022-.022c-1.571-1.276-3.284-2.4-5.127-3.338-.676-.349-1.364-.654-2.083-.949-.065-.033-.142-.055-.218-.087a18.04 18.04 0 0 0-.916-.349l-.666-.229a6.65 6.65 0 0 0-.741-.24 30.35 30.35 0 0 0-1.429-.393c-.316-.065-.644-.142-.971-.218l-.982-.185c-.338-.066-.677-.109-1.003-.164-.273-.065-.546-.087-.829-.12-2.291-.251-4.549-.196-6.753.087 5.597-4.331 10.2-8.236 11.106-8.978 8.367-6.949 15.677-14.76 21.622-23.422 6.491-9.458 11.335-19.942 14.052-31.342l.24-1.047c1.069-4.538 1.833-9.098 2.291-13.626.054-.425.098-.851.131-1.265 0-.022 0-.055.011-.076l.24-3.24c2.923-47.902-26.335-93.164-72.949-109.658-27.731-9.829-54.829-21.404-81.087-34.669-10.222-5.171-20.389-10.615-31.014-14.836-3.164-1.255-6.36-2.4-9.612-3.404-31.865-9.764-69.043-3.513-93.632 18.971-16.789 15.371-26.695 39.033-26.095 61.92a70.53 70.53 0 0 0 .545 7.276 63.27 63.27 0 0 0 1.844 9.065c-5.52 40.015 2.967 81.949 24 116.466l-5.596 50.574c-5.858 52.92 24.109 101.564 70.549 121.68 1.942.851 3.927 1.615 5.935 2.356l.283 4.68-6.218-7.036-21.426 25.375-2.695-.36-.567 4.222-1.331 1.582c-4.2 4.964-4.746 11.804-1.887 17.258a370.73 370.73 0 0 0-99.579 86.247 370.83 370.83 0 0 0-61.636 111.349l-57.044 74.455a67.1 67.1 0 0 1-14.945 14.291l-3.655 2.542-17.357-2.334c-8.454-1.135-16.756-.535-24.523 1.538-7.603-2.313-16.844-4.091-26.291-5.422V1234.67c0-35.52-28.8-64.32-64.32-64.32h-275.749a86.79 86.79 0 0 0 7.276-33.906c.076-5.269.065-8.455-1.353-13.396-2.4-8.367-5.673-15.098-9.622-20.389l3.971-5.214 19.505-25.549c3.218-4.222 2.422-10.255-1.8-13.484l-16.735-12.775-45.741-34.92c-4.222-3.229-10.266-2.422-13.484 1.8l-46.418 60.818-2.444 3.186-26.247 34.353-21.011 27.546c-.786 1.025-1.331 2.171-1.636 3.349-.993 3.654.24 7.691 3.436 10.134l5.433 4.156c-.512 1.069-1.004 2.16-1.451 3.262l-4.603 11.029H1839.78c-34.266 0-62.051 27.785-62.051 62.051v122.084c-16.593 14.138-36.643 32.171-35.018 38.989-4.146-17.389-7.331-34.996-10.626-52.484l-.491-34.146c-.906-62.553-23.957-119.913-61.811-164.4-5.313-8.509-11.989-15.393-19.669-20.706-25.397-23.956-55.648-42.873-89.204-55.091-1.014 1.331-2.073 2.618-3.142 3.895-1.135-.949-2.302-1.865-3.491-2.738 28.102-17.454 47.923-47.476 51.032-82.975l9.971-113.88h.01c50.52-34.036 39.927-105.862 12.731-153.491-2.968-5.204-6.131-10.124-9.437-14.673-.829-1.134-1.669-2.247-2.531-3.338l1.648-1.178 4.603-3.36c21.12-15.436 40.004-30.131 56.16-43.669-176.869 34.364-332.073 129.469-442.975 262.767 16.189-6.109 34.287-13.724 53.913-22.669l2.051-.938 1.146-.524a143.83 143.83 0 0 0 7.123 20.651c12.578 29.215 34.528 54.262 61.287 71.52 5.52 3.556 11.247 6.775 17.149 9.633 4.287 2.094 8.345 3.895 12.229 5.433 4.364 21.426 15.065 40.756 30.251 55.724v9.742a259.97 259.97 0 0 0-26.455 8.051c3.622 4.702 7.625 9.087 11.945 13.134-.414-.36-.851-.698-1.265-1.058-4.309-3.72-8.335-7.767-12.022-12.12-13.135 12.807-21.698 30.436-22.713 50.247l-1.211 23.695-.076 1.44c-11.324 8.749-20.215 20.891-24.895 35.564l-35.519 111.338a10.87 10.87 0 0 0 7.058 13.669l2.891.927-41.531 125.389c-21.589 67.822 7.724 140.487 68.116 175.015l-2.291 44.542-5.858 113.225-.021.218-18.96 367.102h37.069l8.018 84.044 33.742 353.662 3.534 36.982-1.156-.851c-1.113-.84-2.727-.469-3.36.774-6.72 13.244-7.44 36.295-7.341 56.226.021 6.273 3.796 11.062 10.025 14.749.262.164.545.306.829.469l.142 30.742c.022 4.178 2.018 7.571 4.462 7.549l65.88-.317c2.455 0 4.407-3.414 4.385-7.593l-.076-18.12 5.258.208c14.291.534 25.735 4.374 36.971 9.032l.044 9.24c.011 4.178 2.018 7.571 4.462 7.549l42.469-.197c7.222 1.331 15.153 2.127 24.142 2.084 20.356-.087 42.557-5.422 61.877-11.782 14.847 6.24 31.364 11.902 55.036 11.782 39.262-.175 85.331-19.8 104.378-28.789h1216.56c17.935 0 32.739-13.963 33.786-31.865l2.466-11.018 45.065-200.924 115.113-513.262 1.091 2.073c19.723 38.225 26.64 82.92 19.407 125.324-2.585 15.196-6.949 30.174-7.669 45.578-.709 15.414 2.771 31.887 13.658 42.818 6.796 6.84 15.992 11.029 22.331 18.295 10.418 11.935 10.985 29.182 13.462 44.825.327 2.04.687 4.08 1.102 6.109-26.411.382-47.684 21.873-47.684 48.371v297.535a119.15 119.15 0 0 0 1.058 15.873c1.364 10.32 4.058 20.215 7.898 29.531 11.226 27.207 32.247 49.342 58.659 62.029h-23.422v19.691h149.858v-19.691h-23.411c39.993-19.211 67.604-60.098 67.604-107.433v-297.535c0-17.913-9.731-33.545-24.174-41.913-3.393-1.963-7.047-3.512-10.898-4.615 3.131-8.073 4.167-16.876 4.353-25.811 17.836-17.487 26.89-33.873 31.964-46.745 11.225-28.462-.785-80.706-9.208-110.597-11.717-41.629 22.288-85.353 35.781-99.317 43.857-45.39 48.93-110.855 45.679-134.037z" opacity=".4"/><path d="M2451.189 761.583c-5.746-45.314-33.095-82.656-70.541-103.271-13.26-8.286-28.139-14.415-44.262-17.808l-1.279 2.168-.306-.052a147.15 147.15 0 0 0-5.037-.688l-1.472-.176-.455-.041-1.46-.145c-2.303-.219-4.616-.387-6.945-.487l-2.729-.099-1.771-.031-1.31-.015-2.149.009-1.073.021a90.36 90.36 0 0 0-3.03.088l-1.69.082a141.94 141.94 0 0 0-10.539.941l-2.057.277-2.339.354-2.497.415c-2.291.398-4.558.858-6.802 1.365l-1.634.388-1.625.396c-1.333.334-2.654.691-3.965 1.063l-1.624.469-2.928.899-1.304.429-1.598.541-1.045.363-1.195.432a126.33 126.33 0 0 0-6.092 2.371c-.357.144-.704.295-1.06.447l-1.525.663c-4.578 2.014-9.009 4.265-13.289 6.727l-1.265.737-1.573.941c-.341.2-.674.407-1.014.615a136.11 136.11 0 0 0-5.863 3.841c-.453.305-.897.616-1.34.936l-1.329.951-1.311.965-1.203.902c-.205.15-.417.317-.623.474-.434.327-.867.662-1.29 1.004l-.97.766-1.058.859-2.494 2.088-1.231 1.07-1.214 1.077-1.195 1.091-1.193 1.107-1.479 1.415-.853.833-1.147 1.142-1.137 1.158a133.57 133.57 0 0 0-4.389 4.75c-2.857 3.229-5.563 6.596-8.098 10.073l-.95 1.315-1.839 2.647c-.612.893-1.206 1.792-1.783 2.698l-.869 1.362c-.139.215-.279.431-.409.653l-.443.715-.717 1.179-.447.748-1.298 2.249-.787 1.418a136.52 136.52 0 0 0-7.564 16.119 47.85 47.85 0 0 0-.583 1.516 126.3 126.3 0 0 0-1.33 3.645l-.321.947a134.96 134.96 0 0 0-4.942 18.991c-.082.406-.154.819-.227 1.232l-.431 2.65-.252 1.688-.345 2.598-.191 1.647a136.86 136.86 0 0 0-.577 6.813l-.075 1.509-.071 1.673-.06 1.894-.022 1.469-.008 2.036.011 1.341.033 1.701.057 1.698.074 1.696.208 3.352.008.065.164 2.014.317 3.157.225 1.842c.55 4.338 1.3 8.609 2.24 12.799 4.733 21.169 14.28 40.278 27.331 56.321l-1.296 2.196.542.643.897 1.048.572.657 1.734 1.933 1.103 1.189c4.045 4.33 8.371 8.411 12.969 12.2l1.26 1.025a126.2 126.2 0 0 0 3.051 2.397c.261.202.532.397.801.6a135.02 135.02 0 0 0 16.514 10.6c.36.204.73.401 1.1.599l2.385 1.233 1.526.765 2.361 1.136 1.507.694a137.76 137.76 0 0 0 6.295 2.667l1.411.541 1.569.588 1.781.646 1.39.477 1.933.641 1.279.406 1.627.498 1.632.474 1.635.457 3.25.844.064.013 1.966.47 3.099.68 1.821.358a137.69 137.69 0 0 0 12.861 1.849l.08-.137c11.611 1.483 23.603 1.548 35.768.005 38.186-4.843 70.828-24.495 92.778-52.358 21.59-27.421 32.828-62.806 28.785-99.879l-.281-2.442zm421.257 0c-5.747-45.314-33.095-82.656-70.541-103.271-13.26-8.286-28.139-14.415-44.261-17.808l-1.279 2.168-.306-.052a146.81 146.81 0 0 0-5.037-.688l-1.472-.176-.455-.041-1.46-.145c-2.303-.219-4.616-.387-6.945-.487l-2.73-.099-1.771-.031-1.31-.015-2.149.009-1.073.021a90.44 90.44 0 0 0-3.03.088l-1.69.082c-3.495.18-7.013.494-10.539.941l-2.057.277-2.338.354-2.498.415c-2.291.398-4.558.858-6.802 1.365l-1.634.388-1.625.396c-1.333.334-2.654.691-3.965 1.063l-1.624.469-2.928.899-1.304.429-1.598.541-1.045.363-1.195.432c-2.056.739-4.089 1.532-6.092 2.371-.357.144-.704.295-1.06.447l-1.525.663c-4.578 2.014-9.009 4.265-13.289 6.727l-1.265.737-1.573.941c-.341.2-.674.407-1.014.615a136.11 136.11 0 0 0-5.863 3.841c-.453.305-.897.616-1.339.936l-1.33.951-1.311.965-1.202.902c-.206.15-.418.317-.623.474-.434.327-.866.662-1.29 1.004l-.97.766-1.057.859-2.494 2.088-1.23 1.07-1.214 1.077-1.195 1.091-1.193 1.107-1.479 1.415-.852.833-1.147 1.142-1.137 1.158a133.57 133.57 0 0 0-4.389 4.75c-2.857 3.229-5.563 6.596-8.098 10.073l-.95 1.315-1.839 2.647c-.612.893-1.206 1.792-1.783 2.698l-.869 1.362c-.139.215-.279.431-.409.653l-.443.715-.717 1.179-.447.748-1.298 2.249-.787 1.418a136.52 136.52 0 0 0-7.564 16.119 47.85 47.85 0 0 0-.583 1.516c-.463 1.204-.901 2.421-1.329 3.645-.111.31-.212.628-.321.947a134.96 134.96 0 0 0-4.942 18.991c-.082.406-.155.819-.227 1.232l-.431 2.65-.252 1.688-.346 2.598-.191 1.647a136.86 136.86 0 0 0-.578 6.813l-.075 1.509-.072 1.673-.059 1.894-.022 1.469-.009 2.036.012 1.341.032 1.701.056 1.698.074 1.696.208 3.352.009.065.164 2.014.317 3.157.225 1.842c.55 4.338 1.3 8.609 2.24 12.799 4.733 21.169 14.28 40.278 27.331 56.321l-1.296 2.196.542.643.897 1.048.572.657 1.734 1.933 1.103 1.189c4.045 4.33 8.371 8.411 12.969 12.2l1.26 1.025a126.2 126.2 0 0 0 3.051 2.397c.261.202.532.397.801.6a135.02 135.02 0 0 0 16.514 10.6c.361.204.73.401 1.1.599l2.385 1.233 1.526.765 2.361 1.136 1.507.694a137.76 137.76 0 0 0 6.295 2.667l1.411.541 1.569.588 1.782.646 1.389.477 1.933.641 1.279.406 1.627.498 1.631.474 1.635.457 3.251.844.064.013 1.966.47 3.099.68 1.821.358a137.69 137.69 0 0 0 12.861 1.849l.081-.137c11.611 1.483 23.602 1.548 35.768.005 38.186-4.843 70.828-24.495 92.779-52.358 21.589-27.421 32.827-62.806 28.784-99.879l-.284-2.442zm421.541 2.444l-.285-2.444c-5.746-45.314-33.094-82.656-70.541-103.271-13.26-8.286-28.139-14.415-44.261-17.808l-1.279 2.168-.306-.052c-1.674-.257-3.353-.489-5.037-.688l-1.472-.176-.455-.041-1.46-.145c-2.303-.219-4.616-.387-6.945-.487l-2.73-.099-1.771-.031-1.31-.015-2.149.009-1.073.021c-1.006.012-2.019.042-3.03.088l-1.69.082a141.94 141.94 0 0 0-10.539.941l-2.057.277-2.338.354-2.498.415c-2.291.398-4.558.858-6.802 1.365l-1.634.388-1.625.396c-1.333.334-2.654.691-3.965 1.063l-1.624.469-2.928.899-1.304.429-1.599.541-1.045.363-1.195.432c-2.056.739-4.089 1.532-6.091 2.371-.357.144-.704.295-1.06.447l-1.524.663c-4.578 2.014-9.009 4.265-13.289 6.727l-1.265.737-1.573.941c-.341.2-.673.407-1.014.615a136.11 136.11 0 0 0-5.863 3.841c-.453.305-.897.616-1.339.936l-1.33.951-1.311.965-1.202.902c-.206.15-.418.317-.623.474a47.86 47.86 0 0 0-1.289 1.004l-.97.766-1.058.859-2.494 2.088-1.231 1.07-1.213 1.077-1.195 1.091-1.193 1.107-1.479 1.415-.853.833-1.147 1.142-1.137 1.158a133.57 133.57 0 0 0-4.389 4.75c-2.857 3.229-5.564 6.596-8.098 10.073l-.95 1.315-1.839 2.647c-.612.893-1.206 1.792-1.783 2.698l-.868 1.362c-.14.215-.279.431-.409.653l-.443.715-.717 1.179-.447.748-1.298 2.249-.787 1.418a136.52 136.52 0 0 0-7.564 16.119 47.85 47.85 0 0 0-.583 1.516c-.464 1.204-.902 2.421-1.33 3.645-.111.31-.212.628-.322.947a135.1 135.1 0 0 0-4.942 18.991c-.082.406-.155.819-.227 1.232l-.431 2.65-.252 1.688-.346 2.598-.191 1.647a138.07 138.07 0 0 0-.578 6.813l-.075 1.509-.071 1.673-.06 1.894-.022 1.469-.009 2.036.012 1.341.032 1.701.057 1.698.073 1.696.208 3.352.009.065.164 2.014.317 3.157.225 1.842c.55 4.338 1.3 8.609 2.24 12.799 4.733 21.169 14.281 40.278 27.331 56.321l-1.296 2.196.542.643.897 1.048.573.657 1.734 1.933 1.103 1.189c4.044 4.33 8.37 8.411 12.969 12.2l1.26 1.025c1 .815 2.021 1.609 3.052 2.397.26.202.531.397.8.6a135.02 135.02 0 0 0 16.514 10.6 52.11 52.11 0 0 0 1.101.599l2.384 1.233 1.526.765 2.362 1.136 1.506.694a138.24 138.24 0 0 0 6.295 2.667l1.411.541 1.569.588 1.782.646 1.389.477 1.933.641 1.278.406 1.627.498 1.632.474 1.635.457 3.25.844.065.013 1.965.47 3.099.68 1.821.358a137.69 137.69 0 0 0 12.861 1.849l.081-.137c11.611 1.483 23.603 1.548 35.768.005 38.186-4.843 70.827-24.495 92.778-52.358 21.592-27.42 32.83-62.805 28.787-99.877z" opacity=".4"/></g><path d="M2601.708 1488.292c0 284.754-95.181 547.249-255.47 757.447-85.778-31.673-165.854-75.09-238.3-128.292-69.374 27.395-143.687 44.947-221.211 50.987-55.207 215.832-242.23 378.833-470.13 398.252a536.79 536.79 0 0 1-46.512 1.948c-294.122-.371-532.247-239.111-531.876-533.221.127-96.537 25.934-187.046 70.939-265.08l3.489-5.936c41.864-70.441 99.505-130.401 168.068-175.001l.8-.522c-14.805-59.705-22.653-122.158-22.572-186.443.174-140.51 38.107-272.152 104.177-385.349l4.196-7.072a769.22 769.22 0 0 1 61.41-88.063c115.712-143.432 281.994-244.351 471.719-275.653 41.272-6.805 83.645-10.33 126.854-10.272 54.581.07 107.829 5.855 159.175 16.752a977.92 977.92 0 0 1 157.97-131.155l.464.383c41.643 34.235 81.037 71.102 117.915 110.368l13.448 14.538.823.904a1251.08 1251.08 0 0 1 58.222 68.911l12.231 15.825 9.158 12.219c14.364 19.372 28.172 39.174 41.4 59.381 128.744 196.578 203.613 431.62 203.613 684.144z" opacity=".3" class="B"/><path d="M2245.21 633.512a141.94 141.94 0 0 1 10.539-.941l1.69-.082 3.031-.088 1.073-.021 2.149-.009 1.31.015 1.771.031 2.729.099 6.945.487 1.46.144.455.041 1.472.176a144.05 144.05 0 0 1 5.037.688l3.33.566 2.476.469 1.626.337a58.84 58.84 0 0 1 1.852.408l1.847.433 1.832.451 1.827.477c52.833 14.251 94.356 58.723 101.597 115.822l.285 2.444c4.043 37.073-7.195 72.458-28.784 99.879-21.95 27.862-54.592 47.515-92.779 52.358-46.905 5.948-91.283-11.814-120.84-43.871-15.95-17.281-27.586-38.725-32.978-62.84-.94-4.19-1.69-8.461-2.24-12.799l-.225-1.842-.317-3.156-.164-2.014-.008-.065-.208-3.352-.073-1.696-.057-1.698-.032-1.701-.012-1.341.009-2.036.022-1.469.06-1.894.071-1.673.075-1.509a136.86 136.86 0 0 1 .578-6.813l.191-1.647.346-2.598.252-1.688c.129-.89.276-1.765.431-2.65l.227-1.232c1.194-6.487 2.848-12.826 4.942-18.991l.321-.947 1.33-3.645a46.4 46.4 0 0 1 .583-1.516c2.172-5.548 4.706-10.928 7.564-16.119l.787-1.418 1.298-2.249.447-.749.717-1.178c.144-.241.29-.474.442-.715.13-.222.27-.438.409-.653l.869-1.362a97.34 97.34 0 0 1 1.783-2.698l1.839-2.647.95-1.315a136.58 136.58 0 0 1 8.098-10.073 133.57 133.57 0 0 1 4.389-4.75l1.136-1.158 1.147-1.142c.281-.283.571-.558.853-.833.489-.482.98-.948 1.479-1.415l1.193-1.107c.395-.372.798-.736 1.195-1.091l1.213-1.077 1.231-1.07 2.494-2.088 1.058-.859.97-.766c.423-.342.856-.677 1.289-1.004l.623-.475c.394-.305.798-.604 1.202-.902l1.311-.965 1.329-.951c.443-.32.887-.631 1.34-.936 1.915-1.33 3.877-2.609 5.863-3.841l1.014-.615 1.573-.941 1.265-.737c4.28-2.462 8.711-4.713 13.289-6.727l1.524-.663 1.06-.447c2.002-.839 4.035-1.632 6.091-2.371l1.195-.432 1.046-.363 1.598-.541 1.304-.429 2.928-.899 1.624-.469 3.965-1.063 1.625-.396 1.634-.388a137.03 137.03 0 0 1 6.802-1.365l2.497-.416a76.68 76.68 0 0 1 2.339-.354l2.055-.279z" class="C"/><path d="M2245.21 633.512a141.94 141.94 0 0 1 10.539-.941l1.69-.082 3.031-.088 1.073-.021 2.149-.009 1.31.015 1.771.031 2.729.099 6.945.487 1.46.144.455.041 1.472.176a144.05 144.05 0 0 1 5.037.688l3.33.566 2.476.469 1.626.337a58.84 58.84 0 0 1 1.852.408l1.847.433 1.832.451 1.827.477c18.722 20.282 31.497 46.303 35.219 75.656 1.204 9.495 1.402 18.878.684 28.065-2.963 37.615-21.399 71.771-49.669 95.277-19.885 16.544-44.631 27.822-72.295 31.33-18.823 2.387-37.247.95-54.461-3.697-15.95-17.281-27.586-38.725-32.978-62.84-.94-4.19-1.69-8.461-2.24-12.799l-.225-1.842-.317-3.156-.164-2.014-.008-.065-.208-3.352-.073-1.696-.057-1.698-.032-1.701-.012-1.341.009-2.036.022-1.469.06-1.894.071-1.673.075-1.509a136.86 136.86 0 0 1 .578-6.813l.191-1.647.346-2.598.252-1.688c.129-.89.276-1.765.431-2.65l.227-1.232c1.194-6.487 2.848-12.826 4.942-18.991l.321-.947 1.33-3.645a46.4 46.4 0 0 1 .583-1.516c2.172-5.548 4.706-10.928 7.564-16.119l.787-1.418 1.298-2.249.447-.749.717-1.178c.144-.241.29-.474.442-.715.13-.222.27-.438.409-.653l.869-1.362a97.34 97.34 0 0 1 1.783-2.698l1.839-2.647.95-1.315a136.58 136.58 0 0 1 8.098-10.073 133.57 133.57 0 0 1 4.389-4.75l1.136-1.158 1.147-1.142c.281-.283.571-.558.853-.833.489-.482.98-.948 1.479-1.415l1.193-1.107c.395-.372.798-.736 1.195-1.091l1.213-1.077 1.231-1.07 2.494-2.088 1.058-.859.97-.766c.423-.342.856-.677 1.289-1.004l.623-.475c.394-.305.798-.604 1.202-.902l1.311-.965 1.329-.951c.443-.32.887-.631 1.34-.936 1.915-1.33 3.877-2.609 5.863-3.841l1.014-.615 1.573-.941 1.265-.737c4.28-2.462 8.711-4.713 13.289-6.727l1.524-.663 1.06-.447c2.002-.839 4.035-1.632 6.091-2.371l1.195-.432 1.046-.363 1.598-.541 1.304-.429 2.928-.899 1.624-.469 3.965-1.063 1.625-.396 1.634-.388a137.03 137.03 0 0 1 6.802-1.365l2.497-.416a76.68 76.68 0 0 1 2.339-.354l2.056-.278z" class="D"/><path d="M2245.21 633.512a141.94 141.94 0 0 1 10.539-.941l1.69-.082 3.031-.088 1.073-.021 2.149-.009 1.31.015 1.771.031 2.729.099c6.902 12.373 11.592 26.221 13.479 41.107 2.408 18.99-.02 37.497-6.338 54.306-14.617 38.903-50.056 68.699-94.533 74.339-15.657 1.985-30.975.789-45.299-3.079-5.092-5.517-9.656-11.546-13.594-18.016l-.008-.065-.208-3.352-.073-1.696-.057-1.698-.032-1.701-.012-1.341.009-2.036.022-1.469.06-1.894.071-1.673.075-1.509a136.86 136.86 0 0 1 .578-6.813l.191-1.647.346-2.598.252-1.688c.129-.89.276-1.765.431-2.65l.227-1.232c1.194-6.487 2.848-12.826 4.942-18.991l.321-.947 1.33-3.645a46.4 46.4 0 0 1 .583-1.516c2.172-5.548 4.706-10.928 7.564-16.119l.787-1.418 1.298-2.249.447-.749.717-1.178c.144-.241.29-.474.442-.715.13-.222.27-.438.409-.653l.869-1.362a97.34 97.34 0 0 1 1.783-2.698l1.839-2.647.95-1.315a136.58 136.58 0 0 1 8.098-10.073 133.57 133.57 0 0 1 4.389-4.75l1.136-1.158 1.147-1.142c.281-.283.571-.558.853-.833.489-.482.98-.948 1.479-1.415l1.193-1.107c.395-.372.798-.736 1.195-1.091l1.213-1.077 1.231-1.07 2.494-2.088 1.058-.859.97-.766c.423-.342.856-.677 1.289-1.004l.623-.475c.394-.305.798-.604 1.202-.902l1.311-.965 1.329-.951c.443-.32.887-.631 1.34-.936 1.915-1.33 3.877-2.609 5.863-3.841l1.014-.615 1.573-.941 1.265-.737c4.28-2.462 8.711-4.713 13.289-6.727l1.524-.663 1.06-.447c2.002-.839 4.035-1.632 6.091-2.371l1.195-.432 1.046-.363 1.598-.541 1.304-.429 2.928-.899 1.624-.469 3.965-1.063 1.625-.396 1.634-.388a137.03 137.03 0 0 1 6.802-1.365l2.497-.416a76.68 76.68 0 0 1 2.339-.354l2.054-.278z" class="B"/><path d="M2152.198 859.503l69.27-117.408 30.656-51.968 34.332-58.19c36.493 7.68 66.632 29.36 85.985 58.403l-45.197 76.609-83.112 140.879a137.69 137.69 0 0 1-12.861-1.849l-1.821-.358-3.099-.68-1.965-.47-.064-.012-3.25-.844-1.635-.457-1.632-.474-1.627-.498-1.279-.406-1.933-.641-1.389-.478-1.782-.646-1.568-.588-1.411-.541a137.12 137.12 0 0 1-6.295-2.667l-1.506-.694-2.362-1.136-1.526-.765c-.805-.399-1.592-.811-2.385-1.233l-1.1-.599a134.94 134.94 0 0 1-16.514-10.6l-.8-.6-3.052-2.397c-.427-.335-.844-.676-1.26-1.025-4.598-3.789-8.924-7.87-12.969-12.2l-1.103-1.188-1.734-1.933-.573-.657-.897-1.048-.542-.641z" opacity=".19" class="K"/><path d="M2271.284 743.722c3.351.117 6.218 2.659 6.681 6.121l8.608 63.572c.55 3.869-2.107 7.459-5.933 8.018s-7.373-2.125-7.922-5.995l-7.701-56.799-64.865 7.713c-3.839.456-7.315-2.321-7.763-6.204s2.301-7.4 6.14-7.857l71.689-8.525c.359-.041.716-.056 1.066-.044z" class="C"/><path fill="#9ea9e5" d="M2666.466 633.512a141.94 141.94 0 0 1 10.539-.941l1.69-.082 3.031-.088 1.073-.021 2.149-.009 1.31.015 1.771.031 2.729.099 6.945.487 1.46.144.455.041 1.472.176a144.05 144.05 0 0 1 5.037.688l3.33.566 2.476.469 1.626.337a57.62 57.62 0 0 1 1.852.408l1.847.433 1.832.451 1.827.477c52.833 14.251 94.356 58.723 101.597 115.822l.285 2.444c4.043 37.073-7.195 72.458-28.785 99.879-21.95 27.862-54.592 47.515-92.779 52.358-46.905 5.948-91.282-11.814-120.84-43.871-15.95-17.281-27.586-38.725-32.978-62.84-.94-4.19-1.69-8.461-2.24-12.799l-.225-1.842-.317-3.156-.164-2.014-.008-.065-.208-3.352-.073-1.696-.057-1.698-.032-1.701-.012-1.341.008-2.036.022-1.469.06-1.894.071-1.673.075-1.509a136.86 136.86 0 0 1 .578-6.813l.191-1.647.346-2.598.252-1.688c.129-.89.276-1.765.431-2.65l.227-1.232c1.194-6.487 2.848-12.826 4.942-18.991l.322-.947 1.329-3.645a48.8 48.8 0 0 1 .583-1.516c2.172-5.548 4.706-10.928 7.564-16.119l.787-1.418 1.298-2.249.447-.749.717-1.178.443-.715c.13-.222.27-.438.409-.653l.869-1.362a97.34 97.34 0 0 1 1.783-2.698l1.839-2.647.95-1.315c2.534-3.477 5.241-6.844 8.098-10.073a133.57 133.57 0 0 1 4.389-4.75l1.137-1.158 1.147-1.142c.281-.283.571-.558.853-.833.489-.482.98-.948 1.479-1.415l1.193-1.107c.395-.372.799-.736 1.195-1.091l1.213-1.077 1.231-1.07 2.494-2.088 1.058-.859.969-.766c.423-.342.856-.677 1.29-1.004l.623-.475 1.202-.902 1.311-.965 1.329-.951c.443-.32.887-.631 1.34-.936 1.915-1.33 3.877-2.609 5.863-3.841l1.014-.615 1.573-.941 1.265-.737c4.28-2.462 8.711-4.713 13.289-6.727l1.524-.663 1.06-.447c2.002-.839 4.035-1.632 6.091-2.371l1.195-.432 1.046-.363 1.598-.541 1.304-.429 2.927-.899 1.624-.469 3.965-1.063 1.625-.396 1.634-.388a137.03 137.03 0 0 1 6.802-1.365l2.498-.416a77.09 77.09 0 0 1 2.338-.354l2.056-.279z"/><path d="M2666.466 633.512a141.94 141.94 0 0 1 10.539-.941l1.69-.082 3.031-.088 1.073-.021 2.149-.009 1.31.015 1.771.031 2.729.099 6.945.487 1.46.144.455.041 1.472.176a144.05 144.05 0 0 1 5.037.688l3.33.566 2.476.469 1.626.337a57.62 57.62 0 0 1 1.852.408l1.847.433 1.832.451 1.827.477c18.722 20.282 31.497 46.303 35.219 75.656 1.204 9.495 1.402 18.878.684 28.065-2.963 37.615-21.399 71.771-49.668 95.277-19.885 16.544-44.631 27.822-72.295 31.33-18.823 2.387-37.247.95-54.461-3.697-15.95-17.281-27.586-38.725-32.978-62.84-.94-4.19-1.69-8.461-2.24-12.799l-.225-1.842-.317-3.156-.164-2.014-.008-.065-.208-3.352-.073-1.696-.057-1.698-.032-1.701-.012-1.341.008-2.036.022-1.469.06-1.894.071-1.673.075-1.509a136.86 136.86 0 0 1 .578-6.813l.191-1.647.346-2.598.252-1.688c.129-.89.276-1.765.431-2.65l.227-1.232c1.194-6.487 2.848-12.826 4.942-18.991l.322-.947 1.329-3.645a48.8 48.8 0 0 1 .583-1.516c2.172-5.548 4.706-10.928 7.564-16.119l.787-1.418 1.298-2.249.447-.749.717-1.178.443-.715c.13-.222.27-.438.409-.653l.869-1.362a97.34 97.34 0 0 1 1.783-2.698l1.839-2.647.95-1.315c2.534-3.477 5.241-6.844 8.098-10.073a133.57 133.57 0 0 1 4.389-4.75l1.137-1.158 1.147-1.142c.281-.283.571-.558.853-.833.489-.482.98-.948 1.479-1.415l1.193-1.107c.395-.372.799-.736 1.195-1.091l1.213-1.077 1.231-1.07 2.494-2.088 1.058-.859.969-.766c.423-.342.856-.677 1.29-1.004l.623-.475 1.202-.902 1.311-.965 1.329-.951c.443-.32.887-.631 1.34-.936 1.915-1.33 3.877-2.609 5.863-3.841l1.014-.615 1.573-.941 1.265-.737c4.28-2.462 8.711-4.713 13.289-6.727l1.524-.663 1.06-.447c2.002-.839 4.035-1.632 6.091-2.371l1.195-.432 1.046-.363 1.598-.541 1.304-.429 2.927-.899 1.624-.469 3.965-1.063 1.625-.396 1.634-.388a137.03 137.03 0 0 1 6.802-1.365l2.498-.416a77.09 77.09 0 0 1 2.338-.354l2.055-.278z" class="D"/><path d="M2666.466 633.512a141.94 141.94 0 0 1 10.539-.941l1.69-.082 3.031-.088 1.073-.021 2.149-.009 1.31.015 1.771.031 2.729.099c6.902 12.373 11.592 26.221 13.479 41.107 2.408 18.99-.02 37.497-6.338 54.306-14.617 38.903-50.056 68.699-94.533 74.339-15.657 1.985-30.975.789-45.299-3.079a113.83 113.83 0 0 1-13.593-18.016l-.008-.065-.208-3.352-.073-1.696-.057-1.698-.032-1.701-.012-1.341.008-2.036.022-1.469.06-1.894.071-1.673.075-1.509a136.86 136.86 0 0 1 .578-6.813l.191-1.647.346-2.598.252-1.688c.129-.89.276-1.765.431-2.65l.227-1.232c1.194-6.487 2.848-12.826 4.942-18.991l.322-.947 1.329-3.645a48.8 48.8 0 0 1 .583-1.516c2.172-5.548 4.706-10.928 7.564-16.119l.787-1.418 1.298-2.249.447-.749.717-1.178.443-.715c.13-.222.27-.438.409-.653l.869-1.362a97.34 97.34 0 0 1 1.783-2.698l1.839-2.647.95-1.315c2.534-3.477 5.241-6.844 8.098-10.073a133.57 133.57 0 0 1 4.389-4.75l1.137-1.158 1.147-1.142c.281-.283.571-.558.853-.833.489-.482.98-.948 1.479-1.415l1.193-1.107c.395-.372.799-.736 1.195-1.091l1.213-1.077 1.231-1.07 2.494-2.088 1.058-.859.969-.766c.423-.342.856-.677 1.29-1.004l.623-.475 1.202-.902 1.311-.965 1.329-.951c.443-.32.887-.631 1.34-.936 1.915-1.33 3.877-2.609 5.863-3.841l1.014-.615 1.573-.941 1.265-.737c4.28-2.462 8.711-4.713 13.289-6.727l1.524-.663 1.06-.447c2.002-.839 4.035-1.632 6.091-2.371l1.195-.432 1.046-.363 1.598-.541 1.304-.429 2.927-.899 1.624-.469 3.965-1.063 1.625-.396 1.634-.388a137.03 137.03 0 0 1 6.802-1.365l2.498-.416a77.09 77.09 0 0 1 2.338-.354l2.053-.278z" class="B"/><path d="M2573.454 859.503l69.27-117.408 30.656-51.968 34.332-58.19c36.493 7.68 66.632 29.36 85.985 58.403l-45.197 76.609-83.112 140.879a137.69 137.69 0 0 1-12.861-1.849l-1.82-.358-3.099-.68-1.965-.47-.064-.012-3.25-.844-1.635-.457-1.632-.474-1.627-.498-1.279-.406-1.933-.641-1.389-.478-1.782-.646-1.568-.588-1.411-.541a136.65 136.65 0 0 1-6.295-2.667l-1.507-.694-2.362-1.136-1.526-.765c-.806-.399-1.592-.811-2.385-1.233l-1.1-.599a134.94 134.94 0 0 1-16.514-10.6l-.8-.6-3.052-2.397c-.427-.335-.844-.676-1.26-1.025-4.599-3.789-8.924-7.87-12.969-12.2l-1.103-1.188-1.734-1.933-.573-.657-.897-1.048-.542-.641z" opacity=".19" class="K"/><path fill="#9ea9e5" d="M2693.966 787.688c-2.154 2.569-5.772 3.391-8.573 1.804l-51.498-29.064c-3.15-1.749-4.117-5.861-2.161-9.185s6.097-4.6 9.247-2.851l46.017 25.959 34.455-55.357c2.039-3.276 6.203-4.444 9.301-2.608s3.955 5.98 1.916 9.257l-38.08 61.182c-.189.306-.399.594-.624.863z"/><path d="M3087.723 633.512a141.94 141.94 0 0 1 10.539-.941l1.689-.082 3.031-.088 1.073-.021 2.149-.009 1.31.015 1.771.031 2.729.099 6.945.487 1.46.144.455.041 1.472.176a144.05 144.05 0 0 1 5.037.688l3.33.566 2.476.469 1.626.337 1.852.408 1.847.433 1.832.451 1.827.477c52.833 14.251 94.356 58.723 101.597 115.822l.285 2.444c4.043 37.073-7.195 72.458-28.785 99.879-21.95 27.862-54.592 47.515-92.778 52.358-46.905 5.948-91.283-11.814-120.84-43.871-15.95-17.281-27.586-38.725-32.978-62.84-.94-4.19-1.69-8.461-2.24-12.799l-.225-1.842-.317-3.156-.164-2.014-.008-.065-.208-3.352-.073-1.696-.057-1.698-.032-1.701-.012-1.341.009-2.036.022-1.469.06-1.894.071-1.673.075-1.509a136.86 136.86 0 0 1 .578-6.813l.191-1.647.346-2.598.252-1.688c.129-.89.276-1.765.431-2.65l.227-1.232c1.194-6.487 2.848-12.826 4.942-18.991l.321-.947 1.33-3.645a46.4 46.4 0 0 1 .583-1.516c2.172-5.548 4.706-10.928 7.564-16.119l.787-1.418 1.298-2.249.447-.749.717-1.178c.144-.241.29-.474.442-.715.13-.222.27-.438.409-.653l.869-1.362a97.34 97.34 0 0 1 1.783-2.698l1.839-2.647.95-1.315a136.58 136.58 0 0 1 8.098-10.073 133.57 133.57 0 0 1 4.389-4.75l1.136-1.158 1.147-1.142c.281-.283.571-.558.853-.833.489-.482.98-.948 1.479-1.415l1.193-1.107c.395-.372.798-.736 1.195-1.091l1.213-1.077 1.231-1.07 2.494-2.088 1.058-.859.97-.766c.423-.342.856-.677 1.289-1.004l.623-.475c.394-.305.798-.604 1.202-.902l1.311-.965 1.329-.951c.443-.32.887-.631 1.34-.936a136.11 136.11 0 0 1 5.863-3.841l1.013-.615 1.573-.941 1.265-.737c4.28-2.462 8.711-4.713 13.289-6.727l1.524-.663 1.06-.447c2.002-.839 4.035-1.632 6.091-2.371l1.195-.432 1.046-.363 1.598-.541 1.304-.429 2.928-.899 1.624-.469 3.965-1.063 1.625-.396 1.634-.388a137.03 137.03 0 0 1 6.802-1.365l2.498-.416c.775-.131 1.561-.247 2.339-.354l2.056-.279z" class="C"/><path d="M3087.723 633.512a141.94 141.94 0 0 1 10.539-.941l1.689-.082 3.031-.088 1.073-.021 2.149-.009 1.31.015 1.771.031 2.729.099 6.945.487 1.46.144.455.041 1.472.176a144.05 144.05 0 0 1 5.037.688l3.33.566 2.476.469 1.626.337 1.852.408 1.847.433 1.832.451 1.827.477c18.722 20.282 31.497 46.303 35.219 75.656 1.204 9.495 1.402 18.878.684 28.065-2.963 37.615-21.399 71.771-49.668 95.277-19.886 16.544-44.631 27.822-72.295 31.33-18.823 2.387-37.247.95-54.461-3.697-15.95-17.281-27.586-38.725-32.978-62.84-.94-4.19-1.69-8.461-2.24-12.799l-.225-1.842-.317-3.156-.164-2.014-.008-.065-.208-3.352-.073-1.696-.057-1.698-.032-1.701-.012-1.341.009-2.036.022-1.469.06-1.894.071-1.673.075-1.509a136.86 136.86 0 0 1 .578-6.813l.191-1.647.346-2.598.252-1.688c.129-.89.276-1.765.431-2.65l.227-1.232c1.194-6.487 2.848-12.826 4.942-18.991l.321-.947 1.33-3.645a46.4 46.4 0 0 1 .583-1.516c2.172-5.548 4.706-10.928 7.564-16.119l.787-1.418 1.298-2.249.447-.749.717-1.178c.144-.241.29-.474.442-.715.13-.222.27-.438.409-.653l.869-1.362a97.34 97.34 0 0 1 1.783-2.698l1.839-2.647.95-1.315a136.58 136.58 0 0 1 8.098-10.073 133.57 133.57 0 0 1 4.389-4.75l1.136-1.158 1.147-1.142c.281-.283.571-.558.853-.833.489-.482.98-.948 1.479-1.415l1.193-1.107c.395-.372.798-.736 1.195-1.091l1.213-1.077 1.231-1.07 2.494-2.088 1.058-.859.97-.766c.423-.342.856-.677 1.289-1.004l.623-.475c.394-.305.798-.604 1.202-.902l1.311-.965 1.329-.951c.443-.32.887-.631 1.34-.936a136.11 136.11 0 0 1 5.863-3.841l1.013-.615 1.573-.941 1.265-.737c4.28-2.462 8.711-4.713 13.289-6.727l1.524-.663 1.06-.447c2.002-.839 4.035-1.632 6.091-2.371l1.195-.432 1.046-.363 1.598-.541 1.304-.429 2.928-.899 1.624-.469 3.965-1.063 1.625-.396 1.634-.388a137.03 137.03 0 0 1 6.802-1.365l2.498-.416c.775-.131 1.561-.247 2.339-.354l2.056-.278z" class="D"/><path d="M3087.723 633.512a141.94 141.94 0 0 1 10.539-.941l1.689-.082 3.031-.088 1.073-.021 2.149-.009 1.31.015 1.771.031 2.729.099c6.902 12.373 11.592 26.221 13.48 41.107 2.408 18.99-.02 37.497-6.338 54.306-14.617 38.903-50.056 68.699-94.533 74.339-15.657 1.985-30.975.789-45.3-3.079a113.83 113.83 0 0 1-13.593-18.016l-.008-.065-.208-3.352-.073-1.696-.057-1.698-.032-1.701-.012-1.341.009-2.036.022-1.469.06-1.894.071-1.673.075-1.509a136.86 136.86 0 0 1 .578-6.813l.191-1.647.346-2.598.252-1.688c.129-.89.276-1.765.431-2.65l.227-1.232c1.194-6.487 2.848-12.826 4.942-18.991l.321-.947 1.33-3.645a46.4 46.4 0 0 1 .583-1.516c2.172-5.548 4.706-10.928 7.564-16.119l.787-1.418 1.298-2.249.447-.749.717-1.178c.144-.241.29-.474.442-.715.13-.222.27-.438.409-.653l.869-1.362a97.34 97.34 0 0 1 1.783-2.698l1.839-2.647.95-1.315a136.58 136.58 0 0 1 8.098-10.073 133.57 133.57 0 0 1 4.389-4.75l1.136-1.158 1.147-1.142c.281-.283.571-.558.853-.833.489-.482.98-.948 1.479-1.415l1.193-1.107c.395-.372.798-.736 1.195-1.091l1.213-1.077 1.231-1.07 2.494-2.088 1.058-.859.97-.766c.423-.342.856-.677 1.289-1.004l.623-.475c.394-.305.798-.604 1.202-.902l1.311-.965 1.329-.951c.443-.32.887-.631 1.34-.936a136.11 136.11 0 0 1 5.863-3.841l1.013-.615 1.573-.941 1.265-.737c4.28-2.462 8.711-4.713 13.289-6.727l1.524-.663 1.06-.447c2.002-.839 4.035-1.632 6.091-2.371l1.195-.432 1.046-.363 1.598-.541 1.304-.429 2.928-.899 1.624-.469 3.965-1.063 1.625-.396 1.634-.388a137.03 137.03 0 0 1 6.802-1.365l2.498-.416c.775-.131 1.561-.247 2.339-.354l2.054-.278z" class="B"/><path d="M2994.71 859.503l69.27-117.408 30.656-51.968 34.332-58.19c36.493 7.68 66.632 29.36 85.985 58.403l-45.197 76.609-83.112 140.879a137.69 137.69 0 0 1-12.861-1.849l-1.821-.358-3.099-.68-1.965-.47-.064-.012-3.25-.844-1.635-.457-1.632-.474-1.627-.498-1.279-.406-1.933-.641-1.389-.478-1.782-.646-1.568-.588-1.411-.541c-2.128-.838-4.229-1.731-6.296-2.667l-1.506-.694-2.362-1.136-1.526-.765c-.805-.399-1.592-.811-2.385-1.233l-1.1-.599a134.94 134.94 0 0 1-16.514-10.6l-.8-.6-3.052-2.397c-.427-.335-.844-.676-1.26-1.025-4.598-3.789-8.924-7.87-12.969-12.2l-1.103-1.188-1.734-1.933-.573-.657-.897-1.048-.541-.641z" opacity=".19" class="K"/><path d="M3124.424 767.638c.422 3.326-1.628 6.564-4.971 7.576l-61.372 18.681c-3.731 1.162-7.7-.885-8.865-4.572s.917-7.618 4.648-8.78l54.831-16.701-18.005-62.791c-1.065-3.717 1.119-7.592 4.88-8.657s7.673 1.085 8.739 4.802l19.9 69.398c.1.347.171.697.215 1.044z" class="C"/><path fill="#008196" d="M3627.685 2632.801c0 22.39-61.009 43.428-168.129 61.705-228.962 39.06-668.571 65.495-1173.283 65.495-21.185 0-42.233-.049-63.183-.137l-96.122-.764-116.533-1.802c-169.364-3.35-326.994-9.736-466.308-18.531l-181.959-13.781-55.828-5.338-19.892-2.067-4.897-.519-1.831-.196-4.613-.5-18.169-2.018-7.16-.813-9.109-1.058-6.454-.764-5.505-.666-7.845-.96-.245-.03-26.484-3.408-2.703-.353-2.693-.362-5.358-.725-10.176-1.41-8.208-1.156-4.045-.588-3.555-.529-8.629-1.283-1.401-.216-4.564-.695-11.714-1.841-3.105-.509-2.37-.382-5.906-.97-1.087-.176-1.714-.294-5.534-.94-5.446-.94-4.505-.803-3.516-.627-2.635-.48-2.615-.48-12.742-2.409-4.339-.852-5.475-1.097-7.14-1.479-5.083-1.077-2.312-.509-3.741-.823-13.487-3.115-2.165-.519-2.145-.529-3.222-.803-2.625-.666-1.479-.372-4.408-1.156-3.81-1.028-12.635-3.634c-18.766-5.681-33.418-11.538-43.653-17.522-4.633-2.703-8.345-5.446-11.127-8.208a27.72 27.72 0 0 1-1.058-1.078c-.431-.47-.833-.921-1.205-1.391a11.83 11.83 0 0 1-.529-.686c-.225-.304-.431-.578-.617-.872a14.47 14.47 0 0 1-.823-1.302c-.245-.431-.47-.882-.676-1.332-.049-.117-.108-.235-.157-.353-.059-.117-.108-.235-.157-.343a6.71 6.71 0 0 1-.216-.617c-.029-.02-.029-.059-.039-.078a7.55 7.55 0 0 1-.176-.558 8.41 8.41 0 0 1-.225-.881c-.049-.137-.078-.294-.098-.441-.01-.02-.01-.039-.01-.069a1.02 1.02 0 0 1-.039-.166c-.01-.049-.02-.108-.029-.167a10.15 10.15 0 0 1-.108-.93c-.029-.343-.049-.686-.049-1.029 0-.264.019-.548.039-.823.01-.225.029-.451.059-.666v-.01c.01-.127.02-.235.049-.353 0-.03 0-.069.01-.098.01-.059.01-.117.029-.167.02-.117.039-.245.068-.362.039-.225.088-.45.147-.666.029-.157.078-.313.127-.47.02-.078.049-.167.069-.255.069-.215.137-.441.225-.646 0-.02 0-.03.01-.039a9.08 9.08 0 0 1 .255-.666c.186-.49.421-.96.666-1.469.137-.274.304-.558.46-.843l.519-.852c.529-.852 1.156-1.714 1.861-2.576.235-.274.47-.568.715-.862l.793-.862v-.01l.715-.744.911-.901v-.01c.656-.627 1.361-1.264 2.106-1.9a70.27 70.27 0 0 1 1.939-1.606 25.42 25.42 0 0 0 .862-.676l1.822-1.332c1.557-1.126 3.252-2.243 5.054-3.379l1.44-.901c.5-.304.989-.607 1.508-.891l1.557-.911.392-.215a5.18 5.18 0 0 1 .401-.225c.255-.157.539-.304.803-.441a147.28 147.28 0 0 1 3.35-1.812l1.675-.862 2.742-1.381 2.879-1.381 1.45-.686 2.987-1.361c.509-.216 1.019-.45 1.548-.686l3.849-1.665c.5-.225 1.009-.431 1.518-.637l2.478-1.029 2.057-.842.94-.372.94-.382.735-.274a11.72 11.72 0 0 1 .754-.294l1.969-.774 5.073-1.92 5.318-1.92 2.615-.921c.313-.117.646-.235.97-.343l.97-.343 2.449-.842 2.488-.842 2.527-.842 2.547-.843 2.919-.94h.02l5.994-1.9 6.18-1.9 6.376-1.89h.01l3.252-.96 1.459-.411 1.469-.421 3.242-.921 1.371-.392 1.361-.382 3.497-.95 2.625-.725 1.881-.519 1.89-.519 2.507-.656 2.517-.666 1.048-.274 9.383-2.429 3.34-.842 14.133-3.467 8.501-2.018 2.85-.676 3.34-.764 6.768-1.538 3.428-.774 1.812-.402c.304-.068.607-.147.911-.206.303-.078.607-.137.911-.206l2.311-.509 2.341-.519 10.029-2.165c.196-.039.382-.078.578-.127l7.424-1.557 4.427-.921 20.382-4.124.656-.117 1.43-.294 2.096-.402 12.703-2.448 2.145-.402 2.155-.411 4.319-.803 4.368-.813 28.178-5.054 4.819-.833 4.839-.833 7.493-1.283 4.701-.784 4.73-.774 4.76-.793 8.08-1.323 5.318-.862 5.406-.862 2.713-.421 2.723-.441 4.927-.764 4.975-.774 10-1.518 5.064-.764 5.083-.764 3.82-.558 3.839-.568 7.747-1.136 12.037-1.724 4.143-.578 4.094-.588h.059l10.039-1.391 12.409-1.695 6.259-.832 12.615-1.665 6.366-.833 9.608-1.224 9.696-1.215 13.046-1.626 3.115-.382 3.134-.382 6.288-.754 6.317-.744 6.366-.764 3.232-.372 3.252-.382 8.746-1.019 8.815-.989 43.516-4.73 9.109-.96 4.29-.441 2.145-.216 2.145-.225 3.379-.333 3.379-.343 13.614-1.352 6.171-.607c.117-.01.235-.02.333-.039l.333-.029 2.223-.215 2.214-.216 4.457-.421 32.762-3.046 10.676-.96 13.389-1.175 13.477-1.165 6.112-.51 6.141-.519 21.724-1.753 7.297-.588 3.653-.274 3.653-.284 17.571-1.323 3.369-.254 3.35-.255 3.379-.245 3.379-.245 21.254-1.528 7.12-.49 10.842-.735 4.29-.284 4.27-.274 6.905-.451 6.934-.45 13.8-.872 13.889-.852 21.293-1.244 14.143-.793 3.712-.206 3.722-.206 7.453-.402 19.882-1.038.921-.03 28.874-1.41 13.526-.617 8.286-.372 10.97-.46 10.989-.47 6.415-.255 6.415-.264 16.68-.627 3.712-.127 3.702-.137 2.008-.069 12.88-.46 22.419-.735 7.493-.225 19.079-.558 13.81-.363 2.351-.059 2.488-.068c.695-.03 1.371-.039 2.057-.049l10.078-.245 6.592-.156 6.601-.147 23.408-.48h.01l30.656-.529 1.616-.02 13.888-.206 15.495-.186 10-.108 2.419-.02 12.468-.117 12.468-.078 11.695-.088 12.566-.039 19.513-.037 6.461-.012 20.48.029 16.386.059 2.605.01 16.494.108 17.101.137 2.165.02 17.728.196 18.394.235 18.325.294 18.256.323 15.583.303 15.534.343 10.323.245 10.294.255 7.395.186 1.606.049c.431.02.852.03 1.283.039l5.024.127 6.229.176 9.207.274 4.486.127 4.799.157 1.313.029c.098.01.196.01.304.01l1.244.039 6.905.225c.441.02.872.03 1.323.039l2.066.069 9.285.294 4.447.157 3.075.108 1.371.049 4.662.167 5.436.196 4.074.147.95.039 4.182.147a33.52 33.52 0 0 0 1.068.039l5.25.196c.039.01.068.01.108.01.02.01.049.01.069.01a1.04 1.04 0 0 1 .176.01l5.632.206 8.58.343 4.819.196 5.152.206 4.456.186 5.485.235 11.547.5 8.257.372 4.564.206c.137.01.284.01.421.02l4.28.196 8.639.412c.088 0 .176.01.264.01l11.302.548 2.792.137h.069l2.713.127 1.342.069 7.982.411 4.594.235.901.039 13.408.715 5.054.274 8.296.46 1.352.069c.118.01.235.01.353.02l5.876.333 5.71.323 5.896.333 4.153.245 3.163.186 3.555.216 9.118.548 18.453 1.146c.137.01.284.029.421.029l.411.03 8.423.539 1.273.078 9.07.597 9.334.627 6.083.411c.587.049 1.156.078 1.724.117l1.498.098 9.256.646 2.536.186 3.585.254 3.095.225 1.449.098 1.44.098 2.772.196 1.538.117 1.998.147 3.898.284h.03l2.458.186 5.955.441 5.926.441c.245.01.49.039.735.059.088.01.186.01.274.02l2.508.186 5.553.421 7.238.558 7.395.588 2.057.167 1.166.088c.059.01.127.01.196.01l3.575.294 7.346.597 6.964.568 8.893.735 8.844.744 16.836 1.459 11.44 1.009 11.381 1.029 11.303 1.038 9.53.891 16.924 1.626 7.023.686 1.734.167 20.225 2.037 8.178.842 8.129.852 3.731.392c.372.029.735.069 1.107.118l2.605.264 3.487.372 5.211.568 3.634.392 4.368.48 7.953.872 7.933.882 7.865.891 4.642.529 4.623.529 9.07 1.058 35.583 4.29c.02.01.03.01.049.01l3.389.421 4.074.509 7.395.94 3.79.48 1.783.225 7.649.989 3.408.45 5.485.725 7.277.96 28.609 3.928 14.016 1.988 6.925.999 6.885 1.009 13.604 2.037 2.321.343 4.114.632 6.974 1.072 6.621 1.028 6.572 1.038.813.127 7.316 1.156 4.447.725c.137.02.274.049.421.069l6.415 1.048 24.133 4.055 3.418.597 3.712.637 1.851.323 3.918.676 1.106.206 1.097.196 6.2 1.107 10.392 1.88 3.428.637 3.879.715 17.992 3.408 2.958.578 5.583 1.097 15.064 3.017 7.365 1.518 9.873 2.076 8.061 1.734 3.506.764 13.712 3.066c19.736 4.496 37.992 9.03 54.682 13.565 11.861 3.222 22.929 6.454 33.174 9.687 57.713 18.174 89.349 36.166 89.349 52.288z"/><path d="M3450.486 2557.267c-27.678 27.326-92.938 55.955-200.94 82.85l-37.229 8.815c-193.546 43.604-504.653 81.567-956.427 100.137l-17.796.715-13.281.519c-33.017 1.273-65.524 6.004-97.845 8.795l-116.533-1.802c-169.364-3.35-326.994-9.736-466.308-18.531l-181.959-13.781-55.828-5.338-19.892-2.067-4.897-.519-1.831-.196-4.613-.5-18.169-2.018-7.16-.813-9.109-1.058-6.454-.764-5.505-.666-7.845-.96-.245-.03-29.187-3.761-26.435-3.653-4.045-.588-12.184-1.812-1.401-.216-4.564-.695-11.714-1.841-5.475-.891-5.906-.97-2.801-.47-5.534-.94-5.446-.94-4.505-.803-3.516-.627-2.635-.48-2.615-.48-12.742-2.409-4.339-.852-5.475-1.097-7.14-1.479-5.083-1.077-6.053-1.332-13.487-3.115-2.165-.519-9.471-2.37-4.408-1.156-3.81-1.028-12.635-3.634 36.944-12.762c.01 0 .02-.01.029-.01 17.14-5.671 35.495-11.44 54.995-17.277l35.828-10.382h.01c.01-.01.01-.01.019-.01l12.664-3.546 49.314-13.242c177.787-46.219 418.953-93.693 694.556-130.49h.019l197.914-23.849h.049c.029 0 .059-.01.088-.01.695-.03 1.371-.039 2.057-.049l10.078-.245 6.592-.156 2.821-.069 3.781-.079 23.408-.48h.01l30.656-.529 1.616-.02 13.888-.206 15.495-.186 10-.108 2.419-.02 12.468-.117 12.468-.078 11.695-.088 12.566-.039 19.513-.037 6.461-.012 20.48.029 16.386.059 2.605.01 16.494.108 17.101.137 2.165.02 36.121.431 52.165.921 36.151.842 7.395.186 1.606.049 6.307.167 6.229.176 9.207.274 4.486.127 6.112.186c.098.01.196.01.304.01l1.244.039 8.227.264 2.066.069 9.295.303 4.437.147 3.075.108 1.371.049 4.662.167 5.436.196 4.074.147.95.039 4.182.147.842.039 1.636.059 3.947.147c.02.01.049.01.069.01l5.808.215 8.58.343 9.971.402 4.456.186 5.485.235 11.547.5 8.257.372 4.564.206c.137.01.284.01.421.02l4.28.196 8.639.412c.088 0 .176.01.264.01l11.302.548 2.792.137h.069l6.895.353 5.142.255 4.594.235 14.31.754 5.054.274 8.296.46 1.352.069c.118.01.235.01.353.02l5.876.333 5.71.323 5.896.333 4.153.245 3.163.186 3.555.216 9.118.548 18.453 1.146c.137.01.284.029.421.029l8.834.568 1.273.078 9.07.597 9.334.627 6.083.411c.587.049 1.156.078 1.724.117l1.498.098 11.792.833 3.585.254 3.095.225 1.449.098 5.75.411 1.998.147 3.898.284h.03l4.809.353 3.604.274 5.926.441c.245.01.49.039.735.059.088.01.186.01.274.02l2.508.186 20.186 1.567 2.057.167 1.166.088 3.771.304 7.346.597 6.964.568 8.893.735 8.844.744 16.836 1.459 11.44 1.009 11.381 1.029 11.303 1.038 9.53.891 16.924 1.626 7.023.686 21.959 2.204 8.178.842 8.129.852 3.731.392c.372.029.735.069 1.107.118l11.303 1.205 3.634.392 12.321 1.352 7.933.882 7.865.891 4.642.529 4.623.529 9.07 1.058 35.583 4.29 3.438.431 4.074.509 11.185 1.42 1.783.225 7.649.989 3.408.45 12.762 1.685 28.609 3.928 14.016 1.988 13.81 2.008 13.604 2.037 13.408 2.047 6.621 1.028 6.572 1.038.813.127 11.763 1.881c.137.02.274.049.421.069l6.415 1.048 24.133 4.055 7.13 1.234 1.851.323 5.024.881 1.097.196 6.2 1.107 10.392 1.88 7.307 1.352 17.992 3.408 23.604 4.692 7.365 1.518 9.873 2.076 8.061 1.734 3.506.764 13.716 3.067z" class="F"/><path d="M3051.975 2547.709c0 70.255-600.562 127.211-1341.412 127.211-243.127 0-471.126-6.137-667.766-16.862l-71.605-4.192c-7.546-.477-14.743-3.505-20.123-8.769-.361-.349-.71-.71-1.059-1.083a25.55 25.55 0 0 1-1.2-1.386l-.536-.687c-.221-.302-.431-.582-.617-.873a14.12 14.12 0 0 1-.815-1.304c-.245-.431-.477-.885-.676-1.327l-.303-.699c-.081-.209-.174-.408-.233-.617-.023-.023-.023-.058-.035-.082-.07-.198-.129-.373-.174-.559a6.87 6.87 0 0 1-.233-.874c-.047-.14-.07-.303-.093-.442-.011-.023-.011-.047-.011-.07-.035-.117-.047-.221-.059-.338-.105-.64-.163-1.292-.163-1.956 0-.268.011-.547.035-.827.012-.221.035-.442.058-.664v-.012a2.55 2.55 0 0 1 .07-.443c0-.058.012-.116.023-.175a2 2 0 0 1 .07-.361c.035-.221.082-.443.14-.664.035-.151.081-.314.128-.466l.07-.256c.07-.221.14-.442.221-.652 0-.012 0-.023.012-.035a15.08 15.08 0 0 1 .256-.664c.187-.489.42-.967.664-1.467.139-.28.302-.559.466-.85.163-.28.338-.559.512-.85.536-.85 1.164-1.712 1.863-2.573l.722-.862a26.97 26.97 0 0 1 .792-.862v-.011l.71-.745.909-.897c.664-.629 1.362-1.269 2.108-1.91.617-.536 1.269-1.072 1.945-1.607l.861-.675a59.19 59.19 0 0 1 1.817-1.339c1.561-1.118 3.249-2.236 5.054-3.377l1.444-.897 1.502-.897 1.56-.896.792-.454c.256-.152.536-.303.803-.443 1.083-.605 2.201-1.199 3.354-1.805l1.677-.862 2.737-1.386 2.877-1.374 1.456-.687 2.981-1.363 1.548-.687 3.855-1.665 1.514-.641 2.48-1.025 2.061-.839 1.875-.745a18.63 18.63 0 0 1 .734-.291c.256-.105.501-.198.757-.291l1.968-.769 5.077-1.921 5.31-1.921 2.62-.92 1.933-.675 2.457-.839 5.007-1.688 2.562-.839 2.911-.955h.011l5.998-1.898 6.183-1.898 6.37-1.898h.012l3.26-.943c.955-.291 1.945-.559 2.923-.838l3.238-.932 2.737-.757 3.494-.967a98.89 98.89 0 0 1 2.631-.722l3.773-1.025 5.019-1.339 10.434-2.702 3.33-.839 14.137-3.47 11.377-2.678 13.508-3.086 1.816-.407 1.817-.396 2.317-.524 2.341-.512 10.026-2.166.582-.128 7.418-1.56 4.425-.92 20.391-4.111 2.084-.419 2.096-.407 12.705-2.446 4.297-.803 4.32-.815 4.367-.815 28.181-5.054 9.665-1.654 7.476-1.281 4.705-.792 4.728-.78 4.763-.792 8.082-1.316 5.322-.862 5.403-.862 5.438-.85 4.926-.78 4.973-.769 10.003-1.525 10.143-1.514 7.663-1.141 7.744-1.129 12.041-1.724 8.292-1.164 10.038-1.397 12.414-1.689 6.253-.838 12.623-1.665 6.358-.827 19.308-2.446 13.042-1.619 6.253-.757 6.289-.769 6.312-.745 6.37-.757 3.237-.373 3.249-.373 8.745-1.025 8.815-.99 43.518-4.74 9.107-.955 4.285-.442 4.297-.431 3.377-.338 3.377-.349 13.613-1.351 6.172-.605.338-.035c.105-.011.221-.011.326-.023l4.437-.443 4.46-.419 32.758-3.051 10.678-.955 13.392-1.176 13.474-1.153 12.251-1.037 21.73-1.758 7.29-.571 7.313-.571 17.573-1.327 6.731-.501 3.366-.256 3.377-.245 28.379-2.003 10.842-.734 4.285-.291 4.274-.28 6.906-.454 6.929-.443 13.799-.873 13.892-.85 21.287-1.246 14.149-.792 3.715-.209 11.168-.606 19.89-1.036.92-.035 28.868-1.409 21.811-.978 21.975-.932 12.821-.512 16.676-.629 3.715-.14 3.703-.14 2.003-.07 12.88-.454 22.417-.734 7.499-.233 19.075-.559 13.811-.361 4.705-.116h.151l2.038-.058 10.084-.244 13.194-.303 23.407-.478h.011l30.65-.536 15.511-.221 15.488-.187 10.003-.104 2.422-.023 12.46-.116 12.472-.082 24.257-.128 25.98-.035 147.928 1.397 31.116.652 10.329.245 10.294.256 10.283.268 20.46.582 4.483.128 4.798.151 1.619.047 8.152.256c.442.023.873.035 1.316.047l20.251.675 4.658.163 5.438.198 10.05.373 5.474.198c.116.012.233.012.349.023l5.636.209 8.582.338 4.821.198 5.147.21 4.46.186 5.485.233 11.541.501 8.256.373 4.984.221 4.285.198 8.641.407 11.564.559 9.758.489 5.136.256 4.6.233.897.047 13.415.71 5.054.28 8.292.454 1.351.07c.117.011.233.011.35.023l5.881.326 5.706.326 5.904.338 4.146.244 3.167.186 3.552.21 9.118.547 18.458 1.153.827.058 8.431.536 1.269.081 9.072.594 9.327.629 6.09.407 1.724.116 1.491.105 9.258.64 6.125.443 3.098.221 9.188.664 3.901.279 2.492.186 2.352.163 9.526.722c.244.012.489.035.733.058l1.956.14 6.382.489 7.232.559 7.394.582 2.061.163 1.165.093c.058.011.128.011.198.011l10.923.885 6.964.571 8.885.733 8.85.745c85.602 22.354 133.603 45.051 133.603 64.917z" class="C"/><path d="M1898.779 2505.171c0 36.455-78.384 69.324-203.977 92.508-116.465 21.509-273.536 34.692-446.338 34.692-39.177 0-77.552-.676-114.809-1.979-64.094-2.233-124.946-6.317-181.068-11.929.656-.627 1.361-1.264 2.106-1.91a70.27 70.27 0 0 1 1.939-1.606 25.42 25.42 0 0 0 .862-.676l1.822-1.332c1.557-1.126 3.252-2.243 5.054-3.379l1.44-.901c.5-.304.989-.607 1.508-.891l1.557-.901.793-.45c.255-.157.539-.304.803-.441a147.28 147.28 0 0 1 3.35-1.812l1.675-.862 2.742-1.381 2.879-1.381 1.45-.686 2.987-1.361c.509-.216 1.019-.45 1.548-.686l3.849-1.665c.5-.225 1.009-.431 1.518-.637l2.478-1.029 2.057-.842 1.881-.744.735-.284a11.72 11.72 0 0 1 .754-.294l1.969-.774 5.073-1.92 5.318-1.92 2.615-.921c.637-.235 1.293-.45 1.939-.676.813-.294 1.626-.558 2.449-.833l5.015-1.694c.842-.294 1.694-.558 2.556-.833l2.909-.96h.02l5.994-1.9 6.18-1.9 6.376-1.89h.01l3.261-.95 2.919-.833 3.242-.93 2.733-.764 3.497-.96 2.625-.725 3.781-1.029 5.015-1.332 10.431-2.703 3.34-.842 14.133-3.467 11.381-2.684 13.506-3.085 1.812-.402c.607-.147 1.214-.274 1.822-.401l2.311-.519 2.341-.519 10.029-2.165c.196-.039.382-.078.578-.127l7.424-1.557 4.427-.921 20.382-4.114 2.086-.421 2.096-.402 12.703-2.448 4.3-.803 4.319-.813 4.368-.813 28.178-5.054 9.667-1.655 7.483-1.283 4.701-.793 4.73-.774 4.76-.793 8.08-1.323 5.318-.862 5.406-.862 5.436-.842 4.927-.784 4.975-.774 10-1.518 10.147-1.518 7.659-1.136 7.747-1.136 12.037-1.724 8.296-1.166 10.039-1.391 12.409-1.695 6.259-.832 12.615-1.665 6.366-.833 19.305-2.439 13.046-1.626 6.249-.754 6.288-.764 6.317-.744 6.366-.764 3.232-.372 3.252-.372 8.746-1.029 8.815-.989 43.516-4.73 9.109-.96 4.29-.441 4.29-.431 3.379-.343 3.379-.343 13.614-1.352 6.171-.607c.117-.01.235-.02.333-.039.108-.01.225-.01.333-.02l4.437-.441 4.457-.421 32.762-3.046 10.676-.96 13.389-1.175 13.477-1.156 12.253-1.038 21.724-1.753 7.297-.568 7.307-.578 17.571-1.323 6.739-.5 3.359-.254 3.379-.245 28.374-2.008 10.842-.734 4.29-.294 4.27-.274 6.905-.451 6.934-.45 13.8-.872 13.889-.852 21.293-1.244 14.143-.793 3.712-.206 11.175-.607.01.01c6.112 5.23 11.077 10.411 14.819 15.504h.019c2.194 2.978 3.986 5.916 5.348 8.815 2.118 4.528 3.205 8.955 3.205 13.255z" class="D"/><path fill="#0a6d77" d="M2278.504 2572.216l-354.879 3.794c-367.184 8.193-627.544 28.695-627.544 52.705 0 19.261 167.651 36.272 423.635 46.477 127.554-21.741 207.162-52.567 207.162-86.754 0-1.837-.241-3.7-.693-5.584.453 1.884.694 3.746.694 5.583 0 34.192-79.614 65.014-207.158 86.757 158.637 6.321 351.184 10.018 558.783 10.018 542.57 0 982.421-25.292 982.421-56.494s-439.851-56.502-982.421-56.502z"/><path fill="#f5785c" d="M1965.926 1368.255l109.928 69.911c9.102-1.38 14.578-3.98 29.742-7.082 7.615-1.567 24.745-6.988 40.813-13.872 15.675-6.733 30.347-14.862 34.236-22.145 5.433-10.227 2.476-27.769-4.591-36.933l-12.922-16.77c-3.661-4.767-24.641-16.935-30.422-15.258-18.669 5.409-38.408-1.017-57.749-3.041-4.962-.523-10.438-.659-16.253-.402-33.509 1.43-77.774 15.843-92.782 45.592z"/><path d="M2470.518 1412.75a64.47 64.47 0 0 0 15.021-14.62l188.993-256.154c19.762-25.984 14.718-63.068-11.266-82.83h0c-25.984-19.762-63.068-14.718-82.83 11.266l-172.373 224.977a64.47 64.47 0 0 1-14.318 13.686l-175.861 122.548c-27.902 19.443-35.905 57.214-18.286 86.303h0c19.289 31.846 61.465 40.782 92.012 19.496l178.908-124.672z" class="E"/><path d="M2583.829 827.501c-25.443-39.371-33.361-89.631-21.254-134.917 9.465-5.985 25.496 3.373 34.464 10.081a238.75 238.75 0 0 1 28.812 25.411c11.022 11.426 21.304 24.886 23.066 40.664 2.26 20.243-9.971 39.242-23.756 54.238-3.86 4.199-8.027 8.344-13.273 10.582s-24.963-1.269-28.059-6.059z" class="O"/><path d="M2582.823 1727.875l92.092 24.506c35.469 9.448 69.786-18.603 67.596-55.247l-38.059-636.974c-1.439-24.086-19.549-43.855-43.414-47.388-55.282 23.14-102.862 59.448-139.334 104.705-28.399 35.248-50.076 75.93-63.386 120.035l-1.933 6.576c-2.941 10.422-5.405 21.026-7.395 31.793l-34.328 186.246a231.96 231.96 0 0 0-2.84 20.418l-.141 1.542c-9.732 110.908 61.514 214.61 171.142 243.788z" class="E"/><path d="M2284.491 2447.056c-2.001 2.898 20.704 89.154 20.704 89.154l-139.086-45.415 31.323-30.969 87.059-12.77zm156.43 14.873l-14.276 43.721-34.75-11.347 6.249-10.199-5.956-6.956 14.283-16.647z"/><path d="M2402.248 2557.873c3.631 1.186 6.215 3.46 5.688 5.073l-7.922 24.263c-.516 1.58-3.947 1.902-7.578.717l-278.268-90.862c-3.612-1.179-6.163-3.455-5.647-5.035l7.922-24.262c.523-1.602 3.926-1.934 7.538-.755l278.267 90.861z"/><path fill="#840f20" d="M2315.384 2394.602c32.783 8.298 83.858 54.359 116.958 41.314 1.49-.587 3.042-.439 4.635.713 4.24 3.402 7.94 11.787 1.45 32.936l-3.146 9.634-32.538-10.625-5.025 15.391 32.538 10.625-24.33 74.512-117.967-38.519-11.143-73.208-15.527-5.07 9.563 72.692-18.754-6.124-8.141-46.626-16.596-5.419 7.351 46.368-18.581-6.067-3.283-23.08-14.458-4.721 3.088 22.992-87.009-28.411c-.029-.01-13.063-40.004 25.066-38.179 0-.001 101.125 17.541 175.849-41.128h0z"/><path fill="#231f20" d="M2285.302 2423.274l151.949 49.616 15.401-47.16 258.51-791.698-225.126-52.211-174.936 733.296z"/><path d="M2486.036 1581.821c30.485 64.254 68.917 105.596 101.993 131.64 40.655 32.01 37.09 84.721 37.09 84.721l-7.833 251.68c-1.23 39.408 2.974 78.787 12.491 117.035l54.897 220.651 19.008 76.391 181.137-10.823-11.815-47.14-64.124-255.966a300.16 300.16 0 0 1-7.96-98.009l34.961-417.923-349.845-52.257z" class="H"/><path d="M2646.431 942.579l122.612-7.366 8.415 140.072-122.612 7.366z" class="L"/><path d="M2840.503 884.631c-1.069 9.633-7.018 17.563-15.121 21.565-4.545 2.266-9.757 3.279-15.174 2.682-3.564-.401-6.894-1.462-9.884-3.06-4.25 22.615-15.061 42.563-30.212 58.102-16.401 16.83-37.903 28.451-61.672 32.59-10.316 1.811-21.067 2.201-32.002.991-11.564-1.282-22.528-4.266-32.666-8.648-44.47-19.265-73.165-65.846-67.555-116.515l6.548-59.176 12.627-114.115 63.016 6.977 133.557 14.775 28.81 3.189-6.3 56.914v.011l-.01.023-8.208 74.139c3.183-.848 6.543-1.114 9.985-.739.265.028.53.056.785.117l.963.151.943.185.933.207c.456.115.913.241 1.36.379.245.062.479.136.714.22l.638.225a15.64 15.64 0 0 1 .875.332c.078.028.146.057.213.086a23.43 23.43 0 0 1 1.995.911 26.97 26.97 0 0 1 4.904 3.193.23.23 0 0 1 .023.021c.346.286.692.573 1.028.881.279.257.568.525.837.794.71.692 1.367 1.42 1.994 2.183.071.083.153.177.214.272.094.104.165.198.249.314a27.29 27.29 0 0 1 5.593 19.824z" class="I"/><path d="M2840.503 884.631c-1.069 9.633-7.018 17.563-15.121 21.565-4.545 2.266-9.757 3.279-15.174 2.682-3.564-.401-6.894-1.462-9.884-3.06-4.25 22.615-15.061 42.563-30.212 58.102-16.401 16.83-37.903 28.451-61.672 32.59-26.378-10.92-47.386-31.39-59.246-56.692-8.544-18.244-12.349-39.008-9.962-60.513l10.214-92.301 8.961-80.98-.001-.011 133.558 14.786 28.81 3.189-6.3 56.914v.011l-.01.023-8.208 74.139c3.183-.848 6.543-1.114 9.985-.739.265.028.53.056.785.117l.963.151.943.185.933.207c.456.115.913.241 1.36.379.245.062.479.136.714.22l.638.225a15.64 15.64 0 0 1 .875.332c.078.028.146.057.213.086a23.43 23.43 0 0 1 1.995.911 26.97 26.97 0 0 1 4.904 3.193.23.23 0 0 1 .023.021c.346.286.692.573 1.028.881.279.257.568.525.837.794.71.692 1.367 1.42 1.994 2.183.071.083.153.177.214.272.094.104.165.198.249.314 4.218 5.427 6.412 12.432 5.594 19.824z" class="M"/><path d="M2677.171 961.38h0c17.882 1.979 33.778-9.066 35.504-24.67l1.902-17.189-64.756-7.166-1.902 17.188c-1.726 15.604 11.37 29.858 29.252 31.837z" class="H"/><path d="M2663.32 929.373l35.822 3.964c6.446.713 12.249-3.934 12.962-10.379l.366-3.312-58.06-6.425-.489 4.415c-.645 5.836 3.563 11.091 9.399 11.737z" class="B"/><g class="H"><circle cx="2609.535" cy="848.28" r="9.614" transform="rotate(353.229 2609.738 848.337)"/><path d="M2698.278 858.101c-.584 5.277 3.221 10.029 8.498 10.613s10.029-3.221 10.613-8.498-3.221-10.029-8.498-10.613-10.029 3.221-10.613 8.498zm49.491-11.078a5.02 5.02 0 0 0 .292-10.027l-49.11-3.452c-2.764-.193-5.165 1.89-5.359 4.656a5.02 5.02 0 0 0 4.655 5.359l49.11 3.452c.138.01.276.014.412.012zm-159.402-13.137c.163.008.327.009.493.001l36.98-1.683a5.02 5.02 0 0 0 4.786-5.243c-.126-2.769-2.469-4.913-5.243-4.786l-36.98 1.683a5.02 5.02 0 0 0-4.786 5.243c.119 2.603 2.2 4.653 4.75 4.785z"/></g><path fill="#ff9e83" d="M2142.081 1390.724c16.038 41.17 77.164 45.919 118.025 36.491 6.036-1.385 11.612-3.078 16.552-5.016 19.263-7.553 37.697-19.739 58.379-19.487 6.404.084 24.473-18.335 26.885-24.26l8.498-20.869c4.653-11.408 2.722-30.231-5.751-39.181-6.052-6.369-23.406-10.559-41.39-13.018-18.441-2.513-37.544-3.227-45.803-2.668-24.237 1.645-50.086 4.796-73.624 11.146-33.66 9.08-77.94 35.313-61.771 76.862z"/><path fill="#e97474" d="M2260.289 1428.182c6.083-1.396 11.702-3.102 16.68-5.055 19.412-7.612 37.989-19.892 58.831-19.638 6.454.085 24.662-18.477 27.093-24.448l8.564-21.03c4.689-11.497 2.744-30.465-5.796-39.484-6.099-6.418-23.588-10.64-41.711-13.119-16.278 7.281-31.038 17.71-42.646 31.235-21.291 24.787-30.592 60.459-21.015 91.539z"/><path d="M2436.932 1525.314c1.387 6.869 3.045 13.751 4.997 20.648 15.174 53.595 46.58 88.702 98.569 108.175 31.139 11.663 67.98 16.652 109.851 14.15l207.509-12.399-33.637-562.968c-1.997-33.421-20.853-61.605-47.283-75.865-1.983 6.452-4.867 12.514-8.513 18.03-11.47 17.392-30.479 29.292-52.594 30.613a66.91 66.91 0 0 1-32.211-6.079c-13.833-6.407-19.492-16.777-29.868-26.599-5.726-5.42-2.453-10.331-10.652-11.01-4.562-.378-16.335 10.24-20.183 12.885-24.476 16.826-46.872 36.603-66.657 58.752-47.275 52.924-75.838 117.691-92.795 185.841-19.93 80.101-43.276 162.897-26.533 245.826z" class="B"/><path fill="#eaa837" d="M2527.72 1486.831c50.168 16.924 105.291-2.696 135.7-50.149l134.03-227.277-7.442-124.548a61.09 61.09 0 0 0-9.231-4.778c-9.001-3.766-18.664-5.335-28.21-4.765-16.036.958-31.731 7.976-43.343 20.872l-136.941 152.186c-2.941 10.422-5.405 21.026-7.395 31.793l-34.328 186.246c-1.263 6.823-2.198 13.635-2.84 20.42z"/><path fill="#e5ebff" d="M2497.658 1495.572c.352 5.028-.184 10.795-.944 18.072-5.09 48.726 15.344 101.68 43.784 140.493 31.139 11.663 67.98 16.652 109.851 14.15l173.899-10.391-26.798-448.492-134.03 227.277c-30.409 47.453-85.531 67.073-135.7 50.149a231.96 231.96 0 0 1 2.84-20.418l34.328-186.246c1.99-10.767 4.454-21.372 7.395-31.793l136.941-152.186c11.611-12.896 27.306-19.914 43.343-20.872 9.546-.57 19.209.999 28.21 4.765a61.09 61.09 0 0 1 9.231 4.778l-.692-11.579c-.934-15.636-8.897-29.456-20.892-38.192-11.47 17.392-30.479 29.292-52.594 30.613-11.453.684-22.424-1.547-32.212-6.08a354.8 354.8 0 0 0-77.05 70.975c-29.807 36.992-52.204 79.969-65.32 126.611a355.8 355.8 0 0 0-3.262 12.408c-38.39 5.845-32.469-21.983-56.467-36.185-23.683 51.777-41.369 106.294-52.593 162.114-10.133 50.396 20.036 48.012 51.703 73.4 12.298 9.859 16.344 16.842 17.029 26.629z"/><path d="M2795.025 1756.41l-92.085-24.497c-55.961-14.897-101.928-49.214-132.221-93.998-17.645-26.073-29.969-55.706-35.858-87.112-3.814-20.311-4.938-41.365-3.072-62.685l.151-1.542c.638-6.782 1.577-13.599 2.841-20.416l.556-3.014 1.739-9.437 32.032-173.795c1.136-6.168 2.435-12.289 3.895-18.341l.835-3.455a360.46 360.46 0 0 1 2.655-9.993l1.936-6.585c13.309-44.101 34.989-84.782 63.392-120.037a354.89 354.89 0 0 1 139.328-104.699c23.871 3.536 41.979 23.303 43.417 47.382l38.061 636.981c2.19 36.647-32.126 64.691-67.602 55.243z" class="F"/><path d="M2816.821 1205.509l-6.712 18.074-118.739 319.337c-22.248 53.642-68.516 88.318-120.651 94.995-17.645-26.073-29.969-55.706-35.858-87.112.174-32.693 1.09-64.864 2.215-97.094l32.032-173.795c1.136-6.168 2.435-12.289 3.895-18.341 5.855-5.785 11.768-11.338 16.822-16.868 28.09-30.792 45.457-69.617 67.658-104.896 19.222-30.56 60.065-86.173 102.056-76.829 4.336.951 8.614 2.272 12.822 3.977a83.48 83.48 0 0 1 12.625 6.423l.592.383c19.963 19.233 33.713 51.683 36.982 82.521 1.901 17.924.266 35.313-5.739 49.225z" class="E"/><path d="M2605.855 1466.553c58.154 8.869 114.36-25.009 133.676-80.574l82.51-237.343c11.976-32.898-4.984-69.276-37.882-81.252h0c-32.898-11.976-69.276 4.984-81.252 37.882l-72.509 199.174c-7.979 21.917-30.142 35.322-53.258 32.212l-203.507-27.38c-32.973-4.436-63.299 18.697-67.735 51.67h0c-4.381 32.563 18.14 62.631 50.621 67.585l249.336 38.026z" class="F"/><path d="M2811.042 870.658c-2.093 1.267-3.447 3.44-4.654 5.568-2.268 3.997-4.35 8.726-2.789 13.048 1.702 4.714 7.075 6.989 12.029 7.743 4.908.747 10.939-.056 13.153-4.5-.652 1.309-5.693-4.611-6.003-5.305-1.832-4.105.945-6.297.677-10.046-.416-5.831-6.4-10.148-12.413-6.508z" class="L"/><path fill="#095996" d="M2684.675 2387.547l19.008 76.391 181.137-10.823-11.815-47.14a1114.31 1114.31 0 0 1-188.33-18.428z"/><path fill="#044768" d="M2285.302 2423.274l151.949 49.616 15.401-47.16-141.552-110.613z"/><path d="M2814.476 780.904v.011l-.01.023-27.391 83.122-17.646-49.327c-5.123-14.319-19.038-23.626-34.223-22.788-33.914 1.871-63.018-1.006-85.76-4.94-32.596-5.648-52.115-13.493-53.965-12.702-3.453 1.467-13.022 41.641-12.717 38.861l12.627-114.115 63.016 6.977-.001-.011 133.558 14.786 22.512 60.103z" class="I"/><path d="M2857.351 774.945l-.231 3.105c-.01.022-.008.055-.006.077l-.125 1.213c-.443 4.334-1.168 8.696-2.191 13.043l-.236 1.001c-2.592 10.919-7.232 20.952-13.454 30.015-5.687 8.287-12.693 15.775-20.703 22.425-1.473 1.217-13.324 11.275-22.501 17.096-6.58 4.164-11.789 6.141-10.827 1.14.485-2.517.257-5.978-.507-10.131-5.199-28.309-14.137-68.737-14.573-70.717-.014-.054-.016-.076-.016-.076-.062-.303-.927-.646-2.428-1.006-2.046-.491-5.302-1.042-9.424-1.618-.012-.01-.023-.01-.023-.01l-.011.001c-26.042-3.651-86.369-8.541-93.415-9.424-23.823-3.005-54.68-8.165-77.699-21.752-16.793-9.914-29.436-24.307-32.146-45.618-.291-2.306-.475-4.641-.526-6.973-.575-21.91 8.912-44.575 24.989-59.292 23.541-21.531 59.147-27.517 89.652-18.159a120.31 120.31 0 0 1 9.205 3.254c10.183 4.039 19.91 9.256 29.698 14.207a664.28 664.28 0 0 0 77.649 33.198c44.635 15.792 72.655 59.136 69.849 105.001z" class="E"/><path d="M2856.989 779.34c-.443 4.334-1.168 8.696-2.191 13.043l-.236 1.001c-2.592 10.919-7.232 20.952-13.454 30.015-5.687 8.287-12.693 15.775-20.703 22.425-1.473 1.217-13.324 11.275-22.501 17.096-6.58 4.164-11.789 6.141-10.827 1.14.485-2.517.257-5.978-.507-10.131-5.199-28.309-14.137-68.737-14.573-70.717 0 0 81.446 13.472 84.992-3.872z" class="O"/><path d="M2680.155 622.539c-24.982 4.934-49.755 11.15-72.752 22.334-13.176 6.41-39.027 29.45-51.093 51.863-.575-21.91 8.912-44.575 24.989-59.292 23.541-21.531 59.147-27.517 89.652-18.159 3.114.954 6.184 2.053 9.204 3.254z" opacity=".33" class="B"/><path d="M2779.305 1024.154l-89.468 45.303-1.192-2.355c-12.573-24.829-2.637-55.149 22.192-67.722l61.159-23.668 7.309 48.442zm-159.026 14.912l36.796 33.095 1.705-2.015c17.976-21.247 15.324-53.043-5.923-71.019l-9.084-10.272-24.915 29.507a14.91 14.91 0 0 0 1.421 20.704z" class="F"/><g fill="#231f20"><path d="M2720.729 1081.357l-30.809-4.127c-12.904-1.729-21.963-13.591-20.234-26.494l.998-7.445c1.729-12.904 13.59-21.963 26.494-20.234l30.809 4.127-7.258 54.173z"/><path d="M2613.417 1066.981l30.809 4.127c12.904 1.729 24.766-7.331 26.494-20.234l.997-7.445c1.729-12.904-7.331-24.766-20.234-26.494l-30.809-4.127-7.257 54.173z"/></g><path d="M1771.356 1543.016h497.159c31.179 0 56.455-25.276 56.455-56.455v-285.293c0-31.179-25.276-56.455-56.455-56.455h-497.159c-31.179 0-56.455 25.276-56.455 56.455v285.292c.001 31.181 25.276 56.456 56.455 56.456z" class="F"/><g class="C"><path d="M1749.238 1543.016h501.147c30.078 0 54.461-24.383 54.461-54.461v-289.28c0-30.078-24.383-54.461-54.461-54.461h-501.147c-30.078 0-54.461 24.383-54.461 54.461v289.28c0 30.078 24.383 54.461 54.461 54.461z"/><path d="M1806.724 1543.016h361.75c2.364 0 4.281-1.917 4.281-4.281v-179.904c0-35.754-28.984-64.738-64.738-64.738h-301.293c-2.364 0-4.281 1.917-4.281 4.281v240.361a4.28 4.28 0 0 0 4.281 4.281z"/></g><g class="F"><path d="M1843.451 1543.016h305.869c2.364 0 4.281-1.917 4.281-4.281v-183.621c0-33.701-27.32-61.021-61.021-61.021h-249.129c-33.226 0-60.162 26.935-60.162 60.162v128.599c0 33.227 26.935 60.162 60.162 60.162z"/><path d="M1898.899 1654.605h108.44v-225.613h-23.679c-46.812 0-84.761 37.949-84.761 84.761v140.852z"/></g><path d="M1977.268 1654.605h30.071v-225.613h0c-16.608 0-30.071 13.463-30.071 30.071v195.542z" class="C"/><g class="E"><path d="M2083.95 1688.021h411.441c4.575 0 8.284-3.709 8.284-8.284v-4.628c0-4.575-3.709-8.284-8.284-8.284H2083.95c-4.575 0-8.284 3.709-8.284 8.284v4.628c.001 4.575 3.709 8.284 8.284 8.284z"/><path d="M2458.755 1666.825h25.143v-2.698a9.66 9.66 0 0 0-9.656-9.656h-5.832a9.66 9.66 0 0 0-9.656 9.656v2.698zm-41.575 0h25.144v-2.698a9.66 9.66 0 0 0-9.656-9.656h-5.832a9.66 9.66 0 0 0-9.656 9.656v2.698z"/></g><path fill="#444447" d="M2375.604 1666.825h25.144v-2.698a9.66 9.66 0 0 0-9.656-9.656h-5.832a9.66 9.66 0 0 0-9.656 9.656v2.698z"/><g class="E"><path d="M2235.601 1666.825h123.571v-2.698a9.66 9.66 0 0 0-9.656-9.656h-113.915v12.354z"/><path d="M1814.646 1654.472h428.009v33.549h-428.009z"/></g><path d="M1765.578 1688.021h401.786c7.241 0 13.112-5.87 13.112-13.112v-7.326c0-7.241-5.87-13.112-13.112-13.112h-401.786c-7.241 0-13.112 5.87-13.112 13.112v7.326c.001 7.242 5.871 13.112 13.112 13.112z" class="F"/><path fill="#ffa710" d="M3111.641 1722.592l-144.499 644.285-45.515 202.952c-.997 17.135-15.176 30.514-32.346 30.514H1508.245c-17.529 0-31.882-13.958-32.368-31.476l-19.234-87.355-134.69-611.696-32.624-148.185c-.51-18.236 14.121-33.307 32.368-33.307h1757.61c18.607-.001 33.401 15.684 32.334 34.268z"/><g fill="#ff6a0d"><path d="M3111.641 1722.592l-144.499 644.285c-55.856-160.323-65.676-336.726-26.317-501.966 14.504-60.899 35.661-120.141 62.708-176.589h75.773c18.608.001 33.402 15.686 32.335 34.27zm-452.335 99.629l-31.589 161.725c-.508 3.27-7.726 5.824-16.461 5.824h-824.56c-8.921 0-16.226-2.663-16.474-6.007l-38.278-161.725c-.26-3.481 7.187-6.358 16.474-6.358h894.434c9.472-.001 16.999 2.992 16.454 6.541zm53.528-133.898h17.142v912.021h-17.142zm-578.529 912.019h-573.09c-20.625-19.627-40.287-40.287-58.917-61.746-15.953-18.364-31.21-37.423-45.655-57.085l-134.69-611.696c18.131-65.05 46.999-126.981 85.721-181.493h268.372c2.771 33.122 5.785 66.279 12.579 98.369 30.073 142.064 82.718 279.05 151.721 406.657 79.866 147.676 180.751 282.726 293.959 406.994z"/><path d="M1661.318 1688.323h17.142v912.021h-17.142z"/></g><path d="M1809.018 1853.861c0-.786.27-1.451.812-1.993s1.204-.812 1.993-.812h42.22c4.429 0 8.585.837 12.474 2.51s7.307 3.937 10.26 6.791 5.263 6.2 6.938 10.038 2.51 7.972 2.51 12.4c0 3.446-.542 6.668-1.624 9.669a31.83 31.83 0 0 1-4.503 8.341c-1.919 2.56-4.207 4.848-6.865 6.864a35.85 35.85 0 0 1-4.297 2.801c-2.428 1.347-3.365 4.36-2.047 6.804l17.711 32.837c.491.985.516 1.945.074 2.879s-1.306 1.403-2.583 1.403h-15.5c-.69 0-1.207-.148-1.551-.443-.47-.404-.822-.907-1.094-1.448l-17.962-35.79a5.02 5.02 0 0 0-4.485-2.767h-8.271a5.02 5.02 0 0 0-5.018 5.019v32.625c0 .789-.272 1.453-.812 1.993s-1.206.812-1.993.812h-13.581a2.7 2.7 0 0 1-2.805-2.805v-97.728zm43.4 44.287c1.968 0 3.839-.392 5.61-1.181a14.66 14.66 0 0 0 4.65-3.248c1.329-1.377 2.385-2.976 3.174-4.798s1.181-3.764 1.181-5.831c0-1.967-.395-3.813-1.181-5.536s-1.846-3.248-3.174-4.576a14.27 14.27 0 0 0-4.65-3.1c-1.771-.738-3.642-1.107-5.61-1.107h-19.043a5.02 5.02 0 0 0-5.019 5.019v19.34a5.02 5.02 0 0 0 5.019 5.018h19.043zm54.029-44.287c0-.786.27-1.451.812-1.993s1.204-.812 1.993-.812h60.082c.787 0 1.451.272 1.993.812s.812 1.206.812 1.993v12.105c0 .789-.272 1.453-.812 1.993s-1.207.812-1.993.812h-38.677a5.02 5.02 0 0 0-5.018 5.019v14.173a5.02 5.02 0 0 0 5.018 5.019h31.444c.786 0 1.451.272 1.993.812s.812 1.207.812 1.993v12.253c0 .789-.272 1.453-.812 1.993s-1.206.812-1.993.812h-31.444a5.02 5.02 0 0 0-5.018 5.019v15.797a5.02 5.02 0 0 0 5.018 5.019h38.677c.787 0 1.451.272 1.993.812s.812 1.207.812 1.993v12.105c0 .789-.272 1.453-.812 1.993s-1.207.812-1.993.812h-60.082a2.7 2.7 0 0 1-2.805-2.805v-97.729zm77.354 49.011c0-7.381 1.402-14.319 4.207-20.815s6.592-12.128 11.367-16.903 10.408-8.562 16.903-11.367 13.433-4.207 20.815-4.207c7.478 0 14.047 1.158 19.708 3.469s10.998 5.734 16.017 10.26c1.476 1.379 1.525 2.756.148 4.133l-9.005 9.3c-1.181 1.28-2.413 1.28-3.69 0-3.151-2.754-6.694-4.895-10.629-6.422s-7.972-2.288-12.105-2.288c-4.724 0-9.104.911-13.139 2.731s-7.505 4.306-10.407 7.455-5.193 6.816-6.865 10.998-2.51 8.587-2.51 13.212.835 9.005 2.51 13.138 3.986 7.75 6.938 10.85 6.445 5.561 10.481 7.381 8.415 2.731 13.139 2.731c4.428 0 8.511-.761 12.253-2.288s7.182-3.566 10.333-6.126c.591-.491 1.229-.738 1.919-.738s1.278.247 1.771.738l9.153 9.448c.591.494.835 1.158.738 1.993s-.395 1.502-.886 1.993c-5.019 4.922-10.605 8.539-16.755 10.85a53.93 53.93 0 0 1-19.117 3.469c-7.381 0-14.319-1.379-20.815-4.133s-12.13-6.518-16.903-11.293-8.562-10.382-11.367-16.829-4.207-13.359-4.207-20.74zm107.616-49.011c0-.786.27-1.451.812-1.993s1.204-.812 1.993-.812h60.082c.787 0 1.451.272 1.993.812s.812 1.206.812 1.993v12.105c0 .789-.272 1.453-.812 1.993s-1.207.812-1.993.812h-38.677a5.02 5.02 0 0 0-5.019 5.019v14.173a5.02 5.02 0 0 0 5.019 5.019h31.445c.786 0 1.451.272 1.992.812s.812 1.207.812 1.993v12.253c0 .789-.272 1.453-.812 1.993s-1.206.812-1.992.812h-31.445a5.02 5.02 0 0 0-5.019 5.019v15.797a5.02 5.02 0 0 0 5.019 5.019h38.677c.787 0 1.451.272 1.993.812s.812 1.207.812 1.993v12.105c0 .789-.272 1.453-.812 1.993s-1.207.812-1.993.812h-60.082a2.7 2.7 0 0 1-2.805-2.805v-97.729zm85.028 0c0-.786.27-1.451.812-1.993s1.204-.812 1.993-.812h34.692c4.525 0 8.806.862 12.843 2.583s7.552 4.059 10.555 7.012 5.363 6.422 7.086 10.407 2.583 8.193 2.583 12.622c0 4.627-.862 8.931-2.583 12.917a34.32 34.32 0 0 1-7.086 10.555c-3.003 3.052-6.496 5.439-10.481 7.16s-8.244 2.583-12.77 2.583h-13.434a5.02 5.02 0 0 0-5.019 5.019v29.673c0 .789-.272 1.453-.812 1.993s-1.207.812-1.993.812h-13.581a2.7 2.7 0 0 1-2.805-2.805v-97.726zm36.906 45.025c2.066 0 3.985-.392 5.757-1.181a14.63 14.63 0 0 0 4.65-3.248c1.329-1.377 2.362-3.001 3.1-4.871s1.107-3.886 1.107-6.052c0-2.066-.369-3.96-1.107-5.683s-1.771-3.222-3.1-4.502-2.879-2.288-4.65-3.026-3.691-1.107-5.757-1.107h-12.696a5.02 5.02 0 0 0-5.019 5.019v19.635a5.02 5.02 0 0 0 5.019 5.019h12.696zm66.723-25.096a5.02 5.02 0 0 0-5.019-5.019h-17.568a2.7 2.7 0 0 1-2.805-2.805v-12.105c0-.786.27-1.451.812-1.993a2.71 2.71 0 0 1 1.993-.812h64.511c.787 0 1.451.272 1.993.812s.813 1.206.813 1.993v12.105a2.71 2.71 0 0 1-.813 1.993c-.542.542-1.206.812-1.993.812h-17.568a5.02 5.02 0 0 0-5.019 5.019v77.798c0 .789-.272 1.453-.812 1.993s-1.206.812-1.993.812h-13.729a2.7 2.7 0 0 1-2.805-2.805v-77.798zm61.115-19.929c0-.786.27-1.451.812-1.993s1.204-.812 1.993-.812h13.729c.787 0 1.451.272 1.993.812s.813 1.206.813 1.993v97.726a2.71 2.71 0 0 1-.813 1.993c-.542.542-1.206.812-1.993.812h-13.729a2.7 2.7 0 0 1-2.805-2.805v-97.726zm38.38 49.011c0-7.381 1.377-14.319 4.134-20.815s6.518-12.128 11.293-16.903 10.381-8.562 16.829-11.367 13.359-4.207 20.741-4.207 14.294 1.402 20.74 4.207 12.08 6.595 16.903 11.367 8.61 10.407 11.366 16.903 4.134 13.433 4.134 20.815-1.379 14.297-4.134 20.741-6.546 12.057-11.366 16.829-10.458 8.539-16.903 11.293-13.359 4.133-20.74 4.133-14.297-1.379-20.741-4.133-12.057-6.518-16.829-11.293-8.539-10.382-11.293-16.829-4.134-13.36-4.134-20.741zm19.191 0c0 4.627.886 9.005 2.657 13.139s4.182 7.727 7.234 10.776 6.643 5.462 10.776 7.234 8.512 2.657 13.139 2.657 9.005-.886 13.138-2.657 7.75-4.182 10.85-7.234 5.536-6.643 7.308-10.776 2.657-8.511 2.657-13.139-.886-9.005-2.657-13.138-4.207-7.75-7.308-10.85-6.717-5.559-10.85-7.381-8.514-2.731-13.138-2.731-9.005.911-13.139 2.731-7.727 4.281-10.776 7.381-5.462 6.717-7.234 10.85-2.657 8.513-2.657 13.138zm105.992-50.634c0-.786.27-1.425.812-1.919s1.204-.738 1.993-.738h2.215c.982 0 1.82.346 2.51 1.033l60.23 64.216h.295v-60.968c0-.786.27-1.451.813-1.993s1.204-.812 1.992-.812h13.581c.787 0 1.451.272 1.993.812s.813 1.206.813 1.993v99.35c0 .789-.273 1.426-.813 1.919s-1.206.738-1.993.738h-2.067a3.42 3.42 0 0 1-2.51-1.033l-60.525-66.725h-.295v63.478c0 .789-.272 1.453-.812 1.993s-1.206.812-1.993.812h-13.433a2.7 2.7 0 0 1-2.805-2.805v-99.351z" class="B"/><path opacity=".2" d="M2123.771 1688.325l345.938 912.016h261.309l-321.95-912.016zm-577.963 0l387.339 912.016h361.38l-354.114-912.016z" class="K"/><path d="M2711.337 1688.265h-186.095c0-49.271 38.304-89.604 86.776-92.827-.012-.069-.012-.151-.012-.22v-18.584c0-3.466 2.805-6.272 6.283-6.272a6.27 6.27 0 0 1 6.272 6.272v18.804c4.626.301 9.17.951 13.587 1.913 17.726 3.849 33.562 12.753 45.932 25.111 16.835 16.844 27.257 40.112 27.257 65.803z" class="B"/><path d="M2711.337 1688.176H2563.79c5.242-9.719 10.969-19.172 17.206-28.336 15.897-23.349 35.324-44.5 57.297-62.4 17.691 3.841 33.496 12.728 45.842 25.062a93.39 93.39 0 0 1 16.986 23.28c6.525 12.715 10.216 27.12 10.216 42.394z" class="J"/><path d="M2711.337 1688.176h-100.05c15.539-10.853 32.363-20.017 49.649-27.55 13.121-5.716 26.543-10.587 40.184-14.845 6.526 12.716 10.217 27.121 10.217 42.395z" class="G"/><path d="M2742.8 1475.538s-49.787-164.073 63.325-237.51l110.462 56.987s-112.272 90.34-85.16 178.875-88.627 1.648-88.627 1.648z" class="C"/><path d="M2755.228 1464.718s.437-171.459 130.094-208.559l88.934 86.833s-133.803 53.507-133.803 146.1-85.225-24.374-85.225-24.374z" class="D"/><path d="M2854.143 1442.024v205.108c0 22.711-18.422 41.133-41.133 41.133h-45.723c-22.712 0-41.133-18.422-41.133-41.133v-205.108h127.989z" class="B"/><path d="M2854.143 1496.326v150.805c0 22.711-18.422 41.133-41.133 41.133h-45.723c-22.712 0-41.133-18.422-41.133-41.133v-56.83c24.056-7.466 47.22-17.135 68.169-31.058 24.31-16.161 44.76-37.921 59.82-62.917z" class="D"/><path d="M3023.799 1487.701v36.878c-2.435.661-5.078 1.194-7.872 1.611-23.441 3.524-56.714-1.055-56.714-1.055s-27.998-26.676-48.761-66.453c-2.782-5.333-5.437-10.898-7.872-16.659-15.037-35.545-21.923-78.765-.835-122.031l104.885-3.524s-2.736 7.478-5.854 19.546c-6.319 24.531-14.202 67.995-3.791 106.009.603 2.203 1.263 4.382 1.994 6.527 4.765 14.144 12.335 27.302 23.766 38.142l1.054 1.009z" class="C"/><path d="M2937.358 1531.041s-74.314-129.089 3.534-211.399l102.269 27.955s-73.712 96.386-33.409 165.999-72.394 17.445-72.394 17.445z" class="D"/><path d="M3023.799 1442.024v205.108c0 22.711-18.422 41.133-41.145 41.133h-45.712c-22.723 0-41.133-18.422-41.133-41.133v-205.108h127.99z" class="B"/><path d="M3023.799 1526.898v120.234c0 22.711-18.422 41.133-41.145 41.133h-45.712c-22.723 0-41.133-18.422-41.133-41.133v-7.153c25.042-14.55 48.656-31.569 70.324-50.802 21.193-18.816 40.508-39.719 57.666-62.279z" class="C"/><path d="M1479.988 679.724c0 23.001-11.929 45.364-33.273 57.688l-142.331 82.173c-31.824 18.375-72.516 7.466-90.891-24.358-1.102-1.901-2.087-3.837-2.98-5.797a66.05 66.05 0 0 1-5.947-27.418c0-22.99 11.93-45.353 33.273-57.677l97.673-56.39 44.657-25.783c31.823-18.375 72.528-7.478 90.903 24.346 6.04 10.482 8.916 21.924 8.916 33.216z" class="G"/><path d="M1545.952 689.553l-4.406 3.211-4.092 2.944c-17.089 12.324-35.58 25.076-55.23 38.084-25.471 16.857-52.865 34.13-81.616 51.347-39.394 23.581-77.559 44.796-112.791 62.952l-39.162 19.5-19.511 9.159-1.959.892c-72.423 33.03-123.225 47.022-130.749 33.03-8.428-15.663 39.603-62.557 118.24-119.469l15.836-11.315c14.202-10.005 29.273-20.277 45.075-30.699 24.729-16.312 51.219-32.983 78.985-49.596 25.448-15.245 50.384-29.493 74.348-42.57l17.367-9.356 25.459-13.274c101.441-51.88 177.62-77.698 186.988-60.332 8.228 15.303-37.403 60.377-112.782 115.492z" class="N"/><path d="M1399.682 2043.762l52.031 545.222 188.291-25.28-22.329-17.749c-46.178-36.706-72.009-93.289-69.494-152.225l18.451-432.341-166.95 82.373z" class="I"/><path d="M1448.676 2626.098l63.083-.297c2.343-.005 4.22-3.277 4.2-7.276l-.107-22.901c-.009-1.983-.928-3.609-2.084-3.7-25.913-2.044-50.651-5.884-66.549-17.412-1.443-1.046-3.025.737-3.012 3.416l.196 40.943c.014 3.997 1.93 7.246 4.273 7.227z"/><path d="M1443.47 2588.984c15.083 8.931 45.321 11.072 71.619 12.155l5.832.234c37.643 1.412 54.722 26.772 103.49 26.536 48.76-.227 108.511-31.782 108.511-31.782-.055-11.827-11.082-20.118-32.551-20.014-.662.002-1.333.022-2.003.041l-8.03.139c-18.586.086-32.602-1.968-50.335-12.589-18.203-10.898-30.878-36.02-39.775-35.982-.971.003-1.906.32-2.797.984-7.573 5.651-10.197 19.647-10.836 23.899l.174-.009 1.448 14.183-3.22-.538c-4.854-.815-103.468-17.629-140.878-45.96a2.16 2.16 0 0 0-3.219.738c-6.435 12.68-7.126 34.751-7.031 53.843.021 6.001 3.632 10.588 9.601 14.122z" class="G"/><path d="M1287.725 2043.758l9.85 103.273 42.177 441.956 188.301-25.279-22.339-17.75c-46.175-36.71-72.004-93.285-69.49-152.224l8.325-195.129 7.611-178.162 2.514-59.048-86.072 42.466-80.877 39.897z" class="M"/><path d="M1336.719 2626.098l63.083-.297c2.343-.005 4.22-3.277 4.2-7.276l-.107-22.901c-.009-1.983-.928-3.609-2.084-3.7-25.913-2.044-50.652-5.884-66.549-17.412-1.443-1.046-3.025.737-3.012 3.416l.196 40.943c.014 3.997 1.93 7.246 4.273 7.227z"/><path d="M1331.514 2588.984c15.083 8.931 45.321 11.072 71.619 12.155l5.832.234c37.643 1.412 54.722 26.772 103.49 26.536 48.76-.227 108.511-31.782 108.511-31.782-.055-11.827-11.082-20.118-32.551-20.014-.662.002-1.333.022-2.003.041l-8.03.139c-18.586.086-32.602-1.968-50.335-12.589-18.203-10.898-30.878-36.02-39.775-35.982-.971.003-1.906.32-2.797.984-7.573 5.651-10.197 19.647-10.836 23.899l.174-.009 1.448 14.183-3.22-.538c-4.854-.815-103.468-17.629-140.877-45.96a2.16 2.16 0 0 0-3.219.738c-6.435 12.68-7.126 34.751-7.031 53.843.019 6.001 3.631 10.588 9.6 14.122z" class="N"/><g class="I"><path d="M1287.725 2043.758l9.85 103.273c24.4 14.618 50.805 26.158 77.857 34.855 22.614 7.268 45.722 12.667 69.119 16.72l7.611-178.162c-12.117-5.015-24.702-8.889-37.451-11.54-15.208-3.174-30.637-4.767-46.107-5.042l-80.879 39.896z" opacity=".46"/><path d="M2006.315 1112.344c-.698 50.476-43.844 78.513-77.4 108.938-16.571 15.022-25.123 34.495-39.185 51.818-51.72 63.687-98.367 132.12-160.505 186.622l-10.211 8.716c-36.676 30.393-79.778 40.2-118.429 31.244-31.549-7.298-60.131-27.109-79.822-58.407-43.8-69.644-41.542-189.316-60.513-267.622-8.684-35.793 2.553-48.458 21.022-71.52 7.473-9.327 18.567-10.266 28.516-14.782 3.349-1.527 7.419-1.953 11.149-2.16 34.364-1.985 65.018 13.069 77.553 47.52 5.498 15.044 12.174 38.4 17.422 54.218 1.68 5.073 2.76 7.527 3.775 12.175 1.222 5.574 2.847 11.062 4.691 16.505 5.771 17.04 13.68 33.622 17.968 50.978 7.419 30.022 11.607 61.298 18.906 91.876-2.444-10.211 45.938-46.724 52.942-54.109l1.593-1.68c32.161-33.72 67.07-63.894 99.786-96.611 19.375-20.716 31.167-45.818 41.749-71.814 8.64-21.229 29.956-37.091 48.796-49.593 34.593-22.942 84.066-36.84 98.902 14.858 1.349 4.736 1.36 7.779 1.295 12.83z"/></g><path d="M1729.224 1459.722l-10.211 8.716c-36.676 30.393-79.778 40.2-118.429 31.244-23.357-56.204-20.553-120.611-8.684-180.6 6.992-35.345 17.389-70.702 32.476-103.473 5.771 17.04 13.68 33.622 17.968 50.978 7.419 30.022 11.607 61.298 18.906 91.876-2.444-10.211 45.938-46.724 52.942-54.109l1.593-1.68a1181.05 1181.05 0 0 0 13.439 157.048z" class="L"/><path d="M1539.229 858.121h-.011c-.012 0-.012.012-.023.012-16.891 11.373-33.54 23.117-50.025 35.047l-12.903 9.402c-19.489 14.26-41.156 28.021-58.558 44.761-31.139 29.957-48.982 45.968-85.06 34.71-6.225-1.936-13.007-4.684-20.485-8.324a155.24 155.24 0 0 1-16.416-9.228c-25.621-16.52-46.64-40.507-58.685-68.482-2.864-6.596-5.206-13.425-7.002-20.427l-.916-3.71c-2.052-8.695-3.478-17.344-4.301-25.899-1.02-10.538-1.264-22.236-.452-34.212.093-1.391.811-2.666 1.936-3.478l14.063-10.028 15.848-11.025 29.227-19.674 35.8-23.07 43.185-26.526c25.447-15.245 50.384-29.493 74.348-42.57l17.367-9.356c.081-.046.174-.093.255-.139 17.552-9.344 38.791-8.243 55.381 2.713l2.654 1.797a144.59 144.59 0 0 1 6.365 4.626c6.052 4.661 11.64 9.912 16.636 15.802 1.716 2.006 3.362 4.093 4.927 6.249 3.165 4.359 6.203 9.066 9.042 14.051 26.038 45.607 36.182 114.39-12.197 146.978z" class="E"/><path fill="#eaa837" d="M1416.653 1162.145c5.029 15.071 107.477 65.973 193.508 102.998-23.63-53.594-42.85-109.139-57.4-165.866l-95.978-46.958c0-.001-48.579 84.492-40.13 109.826z"/><path d="M1327.517 1049.323c18.904 24.564 48.607 40.391 81.992 40.391 31.654 0 59.982-14.219 78.942-36.627-14.151-13.821-33.866-21.831-55.174-20.498l-36.119 2.253c-24.358 1.512-47.728 6.513-69.641 14.481z" class="G"/><path d="M1352.846 1029.967h114.847v114.847h-114.847z" class="L"/><path d="M1527.926 2066.558h-273.52l18.155-351.519.012-.209 5.611-108.42 8.776-170.074 4.475-86.462 4.243-81.953 7.64-147.837 1.159-22.688c.974-18.967 9.17-35.846 21.749-48.112 3.536 4.162 7.385 8.046 11.512 11.605 1.959 1.693 3.976 3.304 6.051 4.823 17.158 12.695 38.397 20.195 61.387 20.195 33.377 0 63.079-15.825 81.988-40.391 94.647 34.455 161.911 124.523 163.43 229.999l2.609 179.951 5.333 368.295.232 16.428 1.333 92.248c1.078 73.766-58.43 134.121-132.175 134.121z" class="J"/><path d="M1543.646 807.632l-13.968 159.538c-5.018 57.312-55.533 99.694-112.845 94.676-10.069-.882-19.685-3.172-28.649-6.655-39.718-15.411-66.944-54.234-66.402-98.26-2.986.901-6.176 1.258-9.464.971-13.868-1.214-24.128-13.443-22.915-27.301 1.214-13.868 13.443-24.128 27.312-22.914a24.85 24.85 0 0 1 8.855 2.465l10.567-120.687 207.509 18.167z" class="I"/><path d="M1514.454 670.415c-25.505 8.718-49.943 21.1-72.365 36.449-19.512 13.344-37.492 28.925-53.317 46.281-30.432 33.365-60.54 77.559-73.003 121.509-1.228 4.325-2.133 8.753-2.736 13.274-4.185 30.803 5.287 65.456 19.616 94.126-6.225-1.936-13.007-4.684-20.485-8.324a155.24 155.24 0 0 1-16.416-9.228c-25.621-16.52-46.64-40.507-58.685-68.482-2.864-6.596-5.206-13.425-7.002-20.427l-.916-3.71c-2.052-8.695-3.478-17.344-4.301-25.899-1.02-10.538-1.264-22.236-.452-34.212.093-1.391.811-2.666 1.936-3.478l14.063-10.028 15.848-11.025 29.227-19.674 35.8-23.07 43.185-26.526c25.447-15.245 50.384-29.493 74.348-42.57l17.367-9.356c.081-.046.174-.093.255-.139 17.552-9.344 38.791-8.243 55.381 2.713l2.652 1.796z" class="O"/><path d="M1485.626 802.552l-13.968 159.537c-4.136 47.243-39.183 84.343-83.475 93.101-39.718-15.411-66.944-54.234-66.402-98.26-3.316 1.001-6.884 1.331-10.557.851-12.578-1.641-22.131-12.671-21.917-25.354.25-14.782 12.936-26.008 27.407-24.742a24.85 24.85 0 0 1 8.855 2.465l1.283-14.659c5.127-58.558 56.754-101.872 115.312-96.745l43.462 3.806z" class="M"/><path fill="#0bcbe2" d="M2018.277 1050.53l-18.677 24.473-53.387 69.919-19.975 26.166a9.22 9.22 0 0 1-12.915 1.739l-26.85-20.508-32.971-25.169c-3.061-2.342-4.243-6.214-3.292-9.703a8.89 8.89 0 0 1 1.565-3.211l20.126-26.375 25.134-32.902 2.331-3.049 44.448-58.233c3.084-4.046 8.869-4.811 12.915-1.727l35.661 27.233 8.139 6.214 16.022 12.231c4.045 3.083 4.81 8.868 1.726 12.902z"/><path d="M1563.262 807.076l-24.033 51.045h-.011v.012h-.023c-55.59 1.936-70.023-41.11-71.589-46.373l-.139-.533c-39.927 102.021-141.901 98.914-141.901 98.914l-12.532-22.213c.603-4.521 1.507-8.95 2.736-13.274 12.463-43.95 42.571-88.144 73.003-121.509 15.825-17.355 33.806-32.937 53.317-46.281l78.324 43.058 42.848 57.154z" class="E"/><path d="M1325.57 910.146s101.972 3.107 141.893-98.919l-18.746-32.274c.001 0-7.752 95.494-123.147 131.193z" opacity=".33" class="B"/><path d="M1444.886 1000.424a13.73 13.73 0 0 1-4.046 9.762c-2.492 2.504-5.947 4.046-9.761 4.046h-9.135c-7.617 0-13.796-6.179-13.796-13.808v-13.796h22.931c3.953 0 7.512 1.658 10.028 4.324a13.66 13.66 0 0 1 3.779 9.472z" class="H"/><path d="M1441.211 990.138c-.846 3.171-4.324 5.543-8.475 5.543h-12.231c-4.8 0-8.684-3.152-8.684-7.039v-2.014h19.361c3.954 0 7.513 1.346 10.029 3.51z" class="B"/><g class="H"><circle cx="1500.499" cy="921.371" r="10.17"/><circle cx="1410.255" cy="921.371" r="10.17"/><path d="M1381.699 900.745l.36-.015 51.888-4.49c2.268-.196 3.947-2.194 3.751-4.461s-2.198-3.947-4.461-3.751l-51.888 4.49c-2.268.196-3.947 2.194-3.751 4.461.186 2.147 1.986 3.766 4.101 3.766zm142.716 3.321c1.939 0 3.667-1.375 4.044-3.351a4.12 4.12 0 0 0-3.277-4.82l-38.469-7.331c-2.235-.425-4.394 1.041-4.82 3.277a4.12 4.12 0 0 0 3.277 4.82l38.469 7.331c.261.05.52.074.776.074zm-16.09 21.904a1.37 1.37 0 0 0 1.24-.781c4.005-8.374.124-15.414-.044-15.709-.373-.66-1.211-.893-1.872-.52s-.893 1.21-.521 1.87c.148.266 3.321 6.141-.042 13.174-.327.685-.038 1.505.647 1.832.192.091.393.134.592.134z"/></g><path d="M1658.768 1840.188c-23.071 13.205-48.437 22.444-74.464 27.036-74.231 13.089-152.277-9.217-214.047-52.437-38.432-26.885-70.916-61.328-97.685-99.957l5.611-108.42 8.776-170.074 4.475-86.462 129.126-162.155c-6.167 20.265-12.347 40.634-15.407 61.595-18.573 127.271 108.942 222.138 230.358 196.703l17.691 9.448 5.333 368.295.233 16.428z" class="N"/><path d="M1418.394 924.37c.662 0 1.245-.479 1.354-1.154 1.488-9.162-4.217-14.826-4.46-15.063-.544-.529-1.414-.516-1.943.028s-.516 1.411.025 1.94c.204.201 4.917 4.949 3.666 12.655-.122.749.387 1.455 1.136 1.576.075.012.149.018.222.018z" class="H"/><path d="M1641.031 1454.071l40.278 35.598c38.039 33.619 41.623 91.714 7.997 129.761l-91.777 103.843c-33.626 38.047-91.714 41.622-129.753 8.003l-40.278-35.598c-3.374-2.982-6.108-6.409-8.214-10.114-8.07-14.248-6.673-32.61 4.773-45.561l161.292-182.498c10.274-11.624 25.867-15.747 39.883-11.95a39.17 39.17 0 0 1 15.799 8.516z" class="B"/><path d="M1625.23 1445.556c23.97 34.009 22.438 81.219-6.322 113.76l-91.777 103.843c-27.655 31.291-71.865 39.267-107.848 22.406-8.07-14.248-6.673-32.61 4.773-45.561l161.292-182.498c10.273-11.625 25.867-15.747 39.882-11.95z" class="G"/><path fill="#840f20" d="M1599.413 1617.42l-12.535 14.182c-7.279 8.236-19.857 9.012-28.093 1.733l-4.752-4.2c-8.236-7.279-9.012-19.857-1.733-28.093l12.535-14.182c7.279-8.236 19.857-9.012 28.093-1.733l4.752 4.2c8.236 7.279 9.012 19.857 1.733 28.093z"/><path d="M1705.213 1685.584l-.327.305c-22.833 21.273-48.611 26.422-74.608 19.997-11.225-2.782-22.495-7.724-33.589-14.455-12.796-7.778-20.029-17.051-34.811-21.502-44.214-13.298-88.145-23.411-131.443-41.694l-134.607-56.836c-68.127-28.789-103.113-104.749-80.673-175.222l38.226-115.396 11.127-33.611 26.313-79.44c8.651-26.094 31.288-43.593 56.803-46.975 10.32-1.364 21.099-.425 31.626 3.186a72.62 72.62 0 0 1 10.167 4.418c29.509 15.731 27.589 46.571 16.451 79.233l-19.484 57.087-1.364 3.971-2.727 8.062-40.68 143.062c-.938 2.847-1.44 5.749-1.527 8.629-.175 5.346 1.058 10.593 3.502 15.24v.022a33.26 33.26 0 0 0 2.356 3.786 30.72 30.72 0 0 0 12.098 9.906l7.516 3.469c50.39 23.357 101.87 49.8 152.837 73.735 7.254 3.404 14.498 7.309 21.786 11.411 29.236 16.462 58.985 36.175 91.495 39.873 38.083 4.331 90.851-14.989 104.825 30.284 8.345 27.052-12.197 51.608-31.288 69.455z" class="M"/><path d="M1705.213 1685.584l-.327.305c-22.833 21.273-48.611 26.422-74.608 19.997-24.295-38.04-49.113-75.775-69.567-115.975-6.644-13.058-13.844-27.993-20.531-43.942 29.236 16.462 58.985 36.175 91.495 39.873 38.083 4.331 90.851-14.989 104.825 30.284 8.346 27.055-12.196 51.611-31.287 69.458zM1385.02 1268.65l-2.727 8.062-40.68 143.062c-.938 2.847-1.44 5.749-1.527 8.629-10.767-40.887-31.844-79.604-54.153-115.211-8.269-13.211-18.295-27.284-32.553-32.411l11.127-33.611c8.346-6.84 19.233-11.422 31.342-14.193 25.746-5.902 53.52 3.076 73.8 19.985 5.651 4.724 10.767 9.993 15.371 15.688z" class="I"/><path d="M1374.781 1314.35l-123.456-39.391c-5.026-1.604-7.801-6.978-6.197-12.004l36.052-112.991c10.766-33.741 46.846-52.367 80.588-41.601l19.468 6.212c33.741 10.766 52.367 46.846 41.601 80.588l-36.052 112.991c-1.603 5.026-6.978 7.8-12.004 6.196z" class="G"/><path d="M1335.512 647.947c-23.291 18.712-45.562 38.629-65.92 60.494-22.781 24.473-43.161 51.625-59.079 80.991a66.05 66.05 0 0 1-5.947-27.418c0-22.99 11.93-45.353 33.273-57.677l97.673-56.39z" class="J"/><path fill="#15def7" d="M2000.528 1025.396c-14.77 54.593-64.667 94.763-123.943 94.763-9.043 0-17.865-.939-26.375-2.713a8.89 8.89 0 0 1 1.565-3.211l20.126-26.375 27.464-35.951 44.448-58.233c3.084-4.046 8.869-4.811 12.915-1.727l43.8 33.447z"/><path d="M1992.389 1019.182c-23.082 22.247-54.488 35.928-89.083 35.928-2.11 0-4.197-.046-6.272-.151l2.331-3.049 44.448-58.233c3.084-4.046 8.869-4.811 12.915-1.727l35.661 27.232z" opacity=".65" class="B"/><path d="M3166.034 2246.513c-21.929-70.016-16.103-145.519-11.891-218.94 2.277-39.688 4.015-79.421 4.266-119.178.163-25.697-.346-51.76-7.281-76.451-9.585-34.125-30.815-63.508-43.626-96.498s-15.293-74.843 8.924-100.2c23.928-25.055 65.673-23.317 94.786-4.939s48.171 49.395 64.625 80.152c13.408 25.065 25.983 51.321 29.609 79.675 3.28 25.646-.937 51.591-4.394 77.213-10.709 79.353-14.194 159.732-10.396 239.748.782 16.487 1.653 34.012-6.215 48.406-11.073 20.264-35.333 27.63-54.124 40.574-24.794 17.078-41.207 46.368-43.126 76.964l-21.157-26.526z" class="G"/><path d="M3178.98 2224.406c-22.167-21.96-37.1-51.105-41.974-81.925-2.369-14.981-2.913-31.497-12.888-42.923-6.074-6.957-14.878-10.974-21.392-17.52-10.417-10.468-13.756-26.246-13.069-40.998s4.862-29.091 7.344-43.649c6.923-40.601.295-83.396-18.587-120-17.679-34.274-45.668-63.192-58.202-99.663-9.46-27.527-9.26-58.269.559-85.67 2.443-6.818 5.529-13.538 10.317-18.972 10.75-12.2 28.427-15.993 44.651-14.91 26.552 1.774 51.555 14.737 71.12 32.777s34.101 40.918 45.872 64.785c12.32 24.98 21.956 51.872 22.837 79.712.426 13.457-1.2 26.887-2.823 40.253l-11.29 92.991c-1.214 9.999-2.427 20.133-1.029 30.107 2.43 17.332 12.462 32.565 17.96 49.181 6.324 19.114 6.469 40.219.408 59.418-6.778 21.471-21.018 40.51-24.378 62.774-4 26.496 8.019 52.499 19.721 76.605l-35.157-22.373z" class="J"/><path d="M3199.026 2043.887c-6.614-45.4-47.885-85.82-39.676-130.719 4.107-22.463 20.266-41.191 26.161-63.259 11.697-43.786-18.605-87.781-25.324-132.829-.673-4.509-1.034-9.045-1.215-13.585 13.645 15.6 24.566 33.603 33.76 52.243 12.32 24.981 21.956 51.872 22.837 79.712.426 13.458-1.2 26.887-2.823 40.253l-11.29 92.991c-1.214 9.998-2.427 20.133-1.029 30.107 2.43 17.332 12.462 32.566 17.96 49.182 6.323 19.114 6.469 40.219.408 59.418-6.778 21.471-21.018 40.51-24.379 62.774-1.078 7.146-.963 14.253-.031 21.3-5.016 11.29-3.013 24.579 5.348 37.335l-1.532 7.828-19.22-12.231c-5.514-5.463-10.577-11.373-15.153-17.64-.253-.779-.571-1.543-.79-2.327-8.303-29.796 7.893-53.654 19.387-80.017" class="N"/><path d="M3204.39 2224.228c-10.634-21.389-5.711-42.264 16.401-52.554 68.629-31.939 91.687-67.587 100.936-91.052 10.746-27.263-.757-77.284-8.818-105.91-11.225-39.862 21.34-81.726 34.259-95.099 41.991-43.465 46.854-106.149 43.736-128.352-5.945-42.335-30.913-80.278-52.735-117.962-8.093-13.974-19.26-28.52-35.52-31.547-17.355-3.231-33.61 8.048-44.772 20.749-21.427 24.382-33.048 56.571-32.102 88.918 1.333 45.527 26.206 92.804 9.402 134.895-8.469 21.214-26.734 37.895-33.475 59.713-13.473 43.609 22.717 88.636 23.903 134.5.734 28.372-12.048 54.136-26.029 78-14.538 24.815-33.447 46.584-28.734 77.155 2.628 17.05 13.011 33.958 29.438 41.285l4.11-12.739z" class="J"/><path d="M3320.534 2194.645v284.905c0 62.998-51.068 114.066-114.066 114.066-47.602 0-88.399-29.157-105.488-70.591-5.53-13.402-8.579-28.079-8.579-43.475v-284.905c0-25.598 20.74-46.338 46.338-46.338h135.456c8.451 0 16.37 2.261 23.187 6.203 13.831 8.01 23.152 22.988 23.152 40.135z" class="B"/><path fill="#c47c32" d="M3278.216 2601.275h-143.499v-18.851h143.499z"/><path fill="#008196" d="M3134.718 2582.423h143.499v18.851h-143.499z"/><path d="M3320.534 2194.645v284.905c0 62.998-51.068 114.066-114.066 114.066-47.602 0-88.399-29.157-105.488-70.591 55.625-36.936 103.412-83.959 136.221-142.041 38.919-68.852 53.816-146.921 60.181-226.474 13.831 8.01 23.152 22.988 23.152 40.135z" class="D"/></svg>