<svg version="1.1" id="Layer_1" xmlns="http://www.w3.org/2000/svg" xmlns:xlink="http://www.w3.org/1999/xlink" x="0px" y="0px"
	 width="100%" viewBox="0 0 672 432" enable-background="new 0 0 672 432" xml:space="preserve">
<path fill="#000000" opacity="1.000000" stroke="none" 
	d="
M673.000000,331.583344 
	C662.109741,329.497101 650.932556,329.578308 639.896790,328.403290 
	C625.057556,326.823395 610.169434,325.703033 595.304016,324.367035 
	C593.880615,324.239105 591.795227,324.548187 591.844971,322.477783 
	C591.906128,319.934692 594.285645,320.635071 595.726196,320.731567 
	C605.325134,321.374390 614.915710,322.145538 624.505249,322.922028 
	C640.372314,324.206848 656.236511,325.527069 672.550964,326.916199 
	C673.000000,328.388885 673.000000,329.777802 673.000000,331.583344 
z"/>
<path fill="#000000" opacity="1.000000" stroke="none" 
	d="
M673.000000,356.583344 
	C665.453369,354.487366 657.502686,355.440491 649.797729,354.292206 
	C646.833374,353.850433 641.451416,354.440247 641.801514,351.646637 
	C642.316162,347.540253 647.335938,349.868958 650.277405,349.977814 
	C657.568848,350.247650 664.836670,351.156189 672.557007,351.904053 
	C673.000000,353.388885 673.000000,354.777802 673.000000,356.583344 
z"/>
<path fill="#000000" opacity="1.000000" stroke="none" 
	d="
M673.000000,296.583344 
	C670.357361,296.765533 667.715942,296.517029 665.071716,296.301605 
	C663.351807,296.161530 661.331238,295.952728 661.489441,293.789612 
	C661.654236,291.535095 663.759644,291.697418 665.399780,292.002258 
	C667.696594,292.429169 669.953796,293.004456 672.638977,292.118927 
	C673.000000,293.388885 673.000000,294.777802 673.000000,296.583344 
z"/>
<path fill="#000000" opacity="1.000000" stroke="none" 
	d="
M254.333694,342.125336 
	C252.783203,360.816437 251.242493,379.042999 249.703201,397.252808 
	C255.074295,400.050201 256.458923,404.298828 254.188080,410.346191 
	C253.285217,412.750580 251.357513,412.424255 249.621078,412.280701 
	C236.524307,411.197632 223.434235,410.033081 210.343658,408.876068 
	C204.874481,408.392670 199.410446,407.851257 193.941635,407.363586 
	C190.300659,407.038940 187.416260,405.685150 186.789124,401.699463 
	C186.178009,397.815613 188.025421,395.150543 191.660904,394.053467 
	C195.184769,392.990082 195.035049,391.111298 193.665253,388.402252 
	C182.918472,367.148132 172.102295,345.927460 161.600754,324.552399 
	C159.371750,320.015472 155.706833,319.747650 151.757782,319.393921 
	C136.355850,318.014404 120.851295,317.372223 105.567139,315.183319 
	C83.507484,312.024109 64.306160,302.456299 49.043686,285.912598 
	C40.666008,276.831696 40.972378,270.142731 50.421818,262.063385 
	C62.514015,251.724503 77.139511,246.643875 92.541267,243.773636 
	C102.211891,241.971436 111.984024,241.048660 121.843414,242.567368 
	C123.909996,242.885712 126.067520,242.613632 128.652176,242.613632 
	C122.981026,234.842529 114.886307,233.664032 106.856255,232.471298 
	C93.446442,230.479507 95.690422,229.876297 100.913467,220.453934 
	C102.784866,217.077942 102.462265,214.510727 100.371727,211.319885 
	C86.455421,190.079163 79.653412,166.644821 80.870117,141.306046 
	C83.714722,82.064896 126.934517,37.481110 180.528839,28.618654 
	C206.089081,24.391968 230.621307,27.490414 253.801392,39.308895 
	C261.277313,43.120529 268.784943,41.775639 276.224915,40.134014 
	C281.437286,38.983906 284.230255,40.328400 286.227997,45.315956 
	C290.358185,55.627377 296.778290,65.003143 298.684814,76.242592 
	C298.918610,77.620857 300.073578,78.872574 300.902710,80.115517 
	C309.313202,92.723686 315.216431,106.404152 318.256866,121.255699 
	C318.826538,124.038300 319.635956,125.429893 322.786255,124.849579 
	C326.232391,124.214767 329.705933,124.712502 333.591217,126.050804 
	C333.991089,121.710220 334.517883,117.780930 334.657562,113.837921 
	C334.748535,111.269531 335.669342,109.719994 338.200592,109.242439 
	C344.240479,108.102905 350.248383,106.693153 356.337036,105.943542 
	C361.441559,105.315109 366.732452,106.035423 369.726746,110.794846 
	C373.098358,116.153984 370.216888,120.989525 367.064667,125.901680 
	C375.131714,113.974709 384.691986,107.453873 399.008667,115.972565 
	C406.624268,108.051888 415.185577,103.270111 426.702881,109.668510 
	C431.654327,103.376640 438.413666,101.077866 446.390961,101.554024 
	C448.488281,101.679214 451.535583,101.017334 451.355133,98.464211 
	C450.920929,92.322403 455.515015,90.707100 459.370148,88.305138 
	C460.726379,87.460114 461.913818,86.124718 463.826019,86.299980 
	C465.317993,88.115494 464.211456,90.152702 464.310181,92.054092 
	C464.444336,94.636414 463.638092,97.289658 467.679260,98.052200 
	C469.901520,98.471519 470.018127,108.232201 467.506683,109.241905 
	C461.689240,111.580719 463.655762,116.109764 463.307770,120.453102 
	C465.789001,121.040138 468.324493,121.320702 468.128662,125.051941 
	C467.946564,128.521317 468.184113,131.659760 464.246277,133.312576 
	C460.308533,134.965347 456.441589,136.586685 452.430298,133.781067 
	C450.788818,132.632996 449.773834,133.457657 448.460632,134.340118 
	C441.667206,138.905212 434.545471,141.500732 426.538971,137.380295 
	C424.630524,136.398132 423.838989,138.038681 422.745026,138.898087 
	C414.374756,145.473495 407.009399,146.111526 397.544281,140.798553 
	C393.538727,144.816727 389.144928,148.379242 383.099152,149.541473 
	C379.080292,150.314072 375.532257,149.918884 372.014740,148.120407 
	C370.717346,147.457077 369.554047,146.209686 368.031677,147.730179 
	C361.521454,154.232498 352.684052,154.366364 344.496155,156.232132 
	C343.031250,156.565918 341.564819,156.744827 339.665344,157.954971 
	C341.541107,164.749146 343.448242,171.721710 345.418823,178.676315 
	C345.583008,179.255829 346.073700,179.875366 346.587494,180.197769 
	C347.973022,181.067200 350.829987,180.373291 350.354828,183.150696 
	C349.972229,185.387268 347.154724,184.331284 345.663300,185.598343 
	C345.959076,198.980392 334.962128,205.974167 328.434052,215.514511 
	C326.799774,217.902893 324.552032,216.021866 322.799744,214.698654 
	C318.688202,211.593857 314.781799,208.232986 309.900848,206.228851 
	C306.871704,204.985046 305.048340,205.504333 303.317352,208.354477 
	C293.640442,224.287674 280.935364,237.293961 265.036194,247.081528 
	C262.343536,248.739120 261.582672,250.881683 262.133728,253.787521 
	C263.931519,255.226196 266.018341,254.547348 267.941711,254.731155 
	C272.997681,255.214294 277.929749,255.726944 280.735107,260.987274 
	C281.266052,261.982880 282.877899,262.430084 284.027985,263.063049 
	C292.969421,267.984314 302.866302,268.661194 312.732208,269.722595 
	C336.491821,272.278625 360.030090,276.265869 384.230530,281.045105 
	C382.511139,282.723663 381.013062,282.319550 379.714233,282.320862 
	C362.217865,282.338257 344.718018,282.523834 327.226440,282.228180 
	C317.759552,282.068176 308.300964,281.147827 298.850189,280.420105 
	C294.251862,280.066040 289.953827,280.466858 285.910736,283.739258 
	C290.136871,286.956909 294.648499,288.298035 299.747986,288.755188 
	C326.409943,291.145386 352.796844,295.454590 379.050171,300.618469 
	C379.669434,300.740326 380.410095,300.722382 380.724854,301.945831 
	C369.124329,303.216644 357.559052,303.518738 346.017670,302.827393 
	C332.550659,302.020721 319.033447,302.902008 305.597290,301.382812 
	C302.295654,301.009521 298.918640,301.122955 295.668762,300.516724 
	C291.360168,299.713013 287.964325,301.727539 283.685577,303.379333 
	C287.697510,306.744354 291.653748,308.322327 296.410980,308.753723 
	C322.744751,311.141693 348.828308,315.306488 374.790741,320.260132 
	C375.739014,320.441040 376.653107,320.800995 378.439423,321.332062 
	C374.866089,322.855927 371.876038,323.139984 368.903015,323.176666 
	C343.081268,323.495087 317.314178,322.146149 291.527588,321.069183 
	C286.024384,320.839355 279.333588,321.730896 274.477264,326.146576 
	C270.618011,329.655701 265.962280,329.804596 261.291748,328.870300 
	C257.027954,328.017395 254.971466,329.102264 255.055969,333.716522 
	C255.104355,336.359406 254.599365,339.012390 254.333694,342.125336 
M162.580734,315.687134 
	C168.054276,316.097198 173.531387,316.464600 179.000748,316.924500 
	C207.667313,319.334930 236.332108,321.766418 264.996979,324.196960 
	C269.368378,324.567596 271.418884,322.588745 271.709717,318.200592 
	C272.072052,312.733948 272.886047,307.298584 273.315338,301.834778 
	C274.265961,289.735657 275.149628,277.630615 275.943329,265.520294 
	C276.149109,262.380585 274.490234,260.558258 271.233124,260.258575 
	C264.443298,259.633820 257.614166,259.233765 250.888260,258.183777 
	C245.880737,257.402039 241.442017,258.581055 236.803970,260.066620 
	C229.040680,262.553162 221.134659,264.609314 212.881348,264.636749 
	C203.800613,264.666962 194.719681,264.643646 185.638840,264.643646 
	C188.864822,265.579926 192.134369,265.672302 195.386703,265.959534 
	C197.080200,266.109100 198.994385,266.676636 198.755981,268.814819 
	C198.521225,270.920197 196.562469,271.071777 194.851059,270.930389 
	C188.388641,270.396454 181.931183,269.801941 175.473541,269.211548 
	C173.923126,269.069855 172.266449,268.726074 172.187225,266.843567 
	C172.097488,264.711090 173.931625,264.846558 175.409454,264.658813 
	C176.659409,264.499969 178.015167,265.080566 179.619263,263.855835 
	C168.543152,261.586761 158.024887,258.658752 148.318222,253.568344 
	C142.060196,250.286499 135.732346,248.198624 128.567245,247.594818 
	C111.305344,246.140152 94.396378,246.729233 77.805244,252.331940 
	C73.267647,253.864258 71.607315,256.505005 71.278320,261.010101 
	C70.527885,271.285706 69.544365,281.547791 68.438560,291.791962 
	C68.092583,294.997040 69.429459,296.789429 71.986610,298.211456 
	C81.197769,303.333740 90.739113,307.743073 101.144135,309.665222 
	C121.130531,313.357422 141.485840,313.587799 162.580734,315.687134 
M215.590576,325.278290 
	C199.523529,323.906738 183.492767,321.856964 167.403397,321.585938 
	C166.901627,324.811432 167.892303,326.556427 168.794312,328.332520 
	C178.891006,348.213684 189.036301,368.070587 199.015686,388.010498 
	C200.436646,390.849731 202.461700,391.982086 205.326431,391.885315 
	C212.512833,391.642639 219.610107,392.595612 226.715179,393.376556 
	C229.593582,393.692902 230.564957,392.570923 230.749222,389.830139 
	C231.116776,384.362976 231.787994,378.917084 232.246765,373.455109 
	C233.414993,359.546265 234.509094,345.631195 235.694382,331.723846 
	C235.970154,328.488098 234.874466,326.628906 231.434174,326.412689 
	C226.459305,326.100006 221.490952,325.683960 215.590576,325.278290 
M308.358459,148.891434 
	C313.233124,147.914307 316.438843,143.522614 322.349152,143.085007 
	C319.393921,141.569595 318.038269,139.723602 316.043579,136.624741 
	C314.871826,134.804321 313.595306,132.419632 310.593109,133.574783 
	C309.472809,134.005829 308.756104,133.328293 307.886627,132.821106 
	C301.217377,128.930878 294.288116,129.653320 288.076599,134.683380 
	C286.786743,135.727921 286.045746,137.893570 283.694122,137.286514 
	C283.694122,133.261871 283.545380,129.312836 283.738770,125.380600 
	C283.908722,121.925179 282.336243,121.047829 279.202026,121.351654 
	C274.760864,121.782181 272.200958,123.610336 272.257172,128.513184 
	C272.292389,131.585464 272.850311,134.831909 271.082855,137.945755 
	C259.927979,136.462708 250.137222,138.342041 244.401382,149.948532 
	C239.786285,147.173370 234.885773,147.467850 230.116867,146.896194 
	C228.259674,146.673584 225.606781,146.546722 225.975922,143.693314 
	C226.323715,141.005005 228.713486,140.707260 230.993393,140.673813 
	C232.600830,140.650238 233.759644,141.462982 234.995682,142.407684 
	C236.792526,143.781006 245.519608,141.829071 246.186295,139.729141 
	C247.294678,136.237976 245.220184,133.684769 242.608795,131.670563 
	C241.722031,130.986572 240.537598,130.619720 239.433945,130.296646 
	C231.113831,127.861015 218.911057,133.475037 215.299637,141.359451 
	C211.134811,150.452042 215.491882,157.839432 225.523590,158.754745 
	C227.675995,158.951141 229.815323,159.300232 231.956375,159.608826 
	C233.817993,159.877167 235.004425,160.873077 235.183716,162.828583 
	C235.354126,164.686996 234.591400,166.257355 232.957230,166.954346 
	C229.412704,168.466125 225.804459,168.702698 223.233673,165.210892 
	C220.342072,161.283325 217.204361,164.161819 214.222107,164.657028 
	C212.206711,164.991684 211.276108,166.496384 211.501190,168.738419 
	C212.145065,175.151428 217.219025,179.949783 223.662796,179.548325 
	C228.654434,179.237320 233.720703,178.368042 237.811539,175.245560 
	C241.140396,172.704666 244.037781,170.480194 248.095383,173.921295 
	C249.418533,175.043427 251.273071,174.235794 252.930038,173.981262 
	C256.113708,173.492233 258.612854,171.348679 261.489990,170.445557 
	C267.014343,175.409317 268.334351,175.354462 273.053375,170.090393 
	C273.881958,169.166107 274.938965,168.723373 276.114838,168.567093 
	C279.491425,168.118301 281.945038,166.581116 282.430786,162.931259 
	C295.166199,167.970169 307.730988,163.595978 309.611755,153.373566 
	C305.668152,153.625702 301.805298,152.444351 298.141815,155.273117 
	C295.652283,157.195419 293.276398,156.447464 291.705688,152.456619 
	C297.330597,151.277145 302.455566,150.202484 308.358459,148.891434 
M154.186783,100.806374 
	C147.713440,101.348351 141.407166,102.777527 135.129715,104.371696 
	C127.705727,106.257034 120.505417,108.826569 113.463150,111.788513 
	C109.644402,113.394661 106.687973,116.107277 106.246857,120.597588 
	C105.820290,124.939796 108.819374,127.157890 111.905243,129.265152 
	C118.752419,133.940918 125.773369,134.911804 133.523743,131.180771 
	C140.840012,127.658722 148.245163,124.209175 156.320084,122.610085 
	C165.885544,120.715813 175.548721,122.064888 185.157822,121.660194 
	C187.803207,121.548782 190.526947,121.689980 193.070801,121.097435 
	C199.024796,119.710526 200.435822,115.624786 196.878830,110.718361 
	C193.731583,106.377121 189.540894,103.448204 184.299057,102.344177 
	C174.659027,100.313820 164.899826,99.812149 154.186783,100.806374 
M185.705612,87.338997 
	C187.074112,86.748070 188.500717,86.262787 189.800812,85.547501 
	C194.839462,82.775368 197.915222,78.645203 197.592072,72.720627 
	C197.282166,67.038750 193.938721,63.197906 188.963928,60.893505 
	C183.606049,58.411671 178.048203,58.410957 172.519455,60.503334 
	C166.715088,62.700027 162.886322,66.912468 162.673141,73.042336 
	C162.469025,78.911186 165.821548,83.327095 171.113861,86.101295 
	C175.545441,88.424301 180.085770,89.470436 185.705612,87.338997 
M105.886734,94.403435 
	C110.170357,99.782295 115.963127,99.966988 121.738121,98.247749 
	C127.257591,96.604576 130.482361,92.098824 131.424850,86.585167 
	C132.149094,82.348282 129.853348,78.882965 126.245270,76.549522 
	C121.636024,73.568596 113.624466,74.325165 108.897003,78.064255 
	C104.130539,81.834213 102.980415,87.103218 105.886734,94.403435 
M337.122772,191.666245 
	C340.925934,191.789490 341.567657,188.948944 341.382172,186.308655 
	C341.170410,183.295059 338.361786,184.463745 336.592255,184.397659 
	C332.451721,184.243011 328.298492,184.208817 324.157867,184.348373 
	C321.133240,184.450302 317.946106,183.573944 314.080719,185.788376 
	C321.507965,189.884521 328.907837,190.748352 337.122772,191.666245 
M317.700104,192.178299 
	C315.553772,191.782486 312.645905,189.971802 311.733551,193.142776 
	C310.754639,196.545181 314.350800,196.056061 316.297333,196.813583 
	C319.995728,198.252869 323.793396,199.476715 327.381622,201.150650 
	C333.451874,203.982407 334.749573,203.527435 337.291595,196.437286 
	C330.991302,195.048813 324.750977,193.673553 317.700104,192.178299 
M338.510651,169.354797 
	C338.039551,168.346985 338.134308,167.054031 336.485352,165.997696 
	C332.475983,173.369598 325.293762,176.628036 317.845978,179.683502 
	C322.408966,181.109436 326.883240,180.769913 331.285980,180.522141 
	C341.369629,179.954681 341.444794,179.722961 338.510651,169.354797 
M334.356689,159.078934 
	C333.199707,157.265930 331.904938,156.593369 329.891083,158.084274 
	C328.576202,159.057709 327.024567,159.764923 325.495636,160.386337 
	C319.116791,162.978943 317.918396,165.208466 319.014801,173.485046 
	C327.334961,172.302948 331.442413,166.691299 334.356689,159.078934 
M413.040588,131.442047 
	C416.757782,129.450150 416.984222,126.027626 416.541809,122.469414 
	C416.288727,120.433884 415.036163,118.991325 412.793152,119.659447 
	C409.548859,120.625847 408.925049,123.569817 408.702881,126.369011 
	C408.504822,128.864471 408.769989,131.501724 413.040588,131.442047 
M380.148346,133.907013 
	C380.550690,135.779343 381.176636,137.909073 383.564148,137.050858 
	C387.279510,135.715302 387.849670,132.359711 387.735199,128.852951 
	C387.672272,126.924347 387.305847,124.959335 385.032715,124.753365 
	C383.031921,124.572075 381.736694,126.057899 380.873749,127.778778 
	C380.026428,129.468567 380.096069,131.309616 380.148346,133.907013 
M320.248413,207.182281 
	C321.304321,207.985367 322.381531,208.762131 323.411102,209.597687 
	C324.971466,210.863998 326.379639,210.968307 327.610687,209.171814 
	C328.772034,207.477066 327.908417,206.286560 326.479492,205.498840 
	C321.285187,202.635315 315.955292,200.150665 308.319244,200.194183 
	C312.926208,202.850403 316.299805,204.795502 320.248413,207.182281 
M60.027939,281.537689 
	C60.671616,280.795593 61.550041,280.153625 61.917007,279.293457 
	C63.268883,276.124817 61.291576,274.063477 58.864471,272.996826 
	C56.369221,271.900208 55.471603,274.297638 54.880119,276.174988 
	C54.096710,278.661499 52.948151,281.514160 55.085567,283.630280 
	C56.938049,285.464325 58.161751,282.950623 60.027939,281.537689 
M346.952820,140.641373 
	C348.461426,145.088623 351.281586,141.812256 353.410706,141.561813 
	C355.329681,141.336090 357.295898,140.377304 357.571472,137.958481 
	C357.696411,136.861755 357.037781,136.100342 356.052795,135.644333 
	C353.590149,134.504181 348.087433,137.124512 346.952820,140.641373 
M348.043488,123.578812 
	C352.068756,124.391327 355.536926,123.983597 357.638824,119.644829 
	C352.113983,117.450226 349.015991,118.639397 348.043488,123.578812 
M282.769623,50.520916 
	C280.274353,50.090885 277.967957,50.349625 275.812805,52.285858 
	C278.567291,55.479637 281.443146,56.886440 285.244568,55.056801 
	C285.428894,53.021908 284.459198,51.919914 282.769623,50.520916 
M271.005707,45.160198 
	C270.156006,45.487022 268.950867,45.009979 268.493378,46.254898 
	C273.180969,48.533298 276.717285,48.180973 281.403992,44.570824 
	C277.772064,43.312920 274.740631,44.420933 271.005707,45.160198 
M321.645294,134.979645 
	C320.161316,136.549805 321.100739,137.528244 322.644440,137.626495 
	C325.567749,137.812576 328.522522,137.716980 331.450226,137.524780 
	C332.803070,137.435959 333.324371,136.361572 332.891205,134.365265 
	C329.402740,134.771866 325.753632,136.125687 321.645294,134.979645 
M433.251282,126.716034 
	C435.317871,126.242004 437.448425,128.370819 440.280304,126.611618 
	C436.642731,125.363701 433.789093,124.843056 430.681335,126.031105 
	C431.327271,127.122780 432.003326,126.794456 433.251282,126.716034 
M199.067703,197.515457 
	C199.143951,197.205658 199.248611,196.898346 199.275894,196.584290 
	C199.282501,196.508362 198.985733,196.303482 198.908997,196.337830 
	C196.907318,197.233673 194.942169,198.183929 193.616943,200.455078 
	C196.840103,201.939514 197.490463,199.312119 199.067703,197.515457 
z"/>
<path fill="#000000" opacity="1.000000" stroke="none" 
	d="
M403.943268,327.701416 
	C422.612854,329.351105 440.817413,330.984436 459.020081,332.638580 
	C460.586761,332.780945 462.521179,332.449585 462.738129,335.017212 
	C461.162872,337.172485 458.787994,336.422089 456.816437,336.274963 
	C443.391357,335.273254 429.977814,334.114471 416.562775,332.980652 
	C402.319855,331.776886 388.079498,330.542847 373.837280,329.330505 
	C373.174591,329.274109 372.493195,329.375519 371.840515,329.274445 
	C369.970886,328.984833 367.107117,329.365662 367.522583,326.526154 
	C367.862946,324.200226 370.363007,324.995483 372.168945,325.146698 
	C382.603058,326.020264 393.041046,326.847595 403.943268,327.701416 
z"/>
<path fill="#000000" opacity="1.000000" stroke="none" 
	d="
M464.209747,280.652344 
	C469.310944,281.022797 473.951111,281.380127 478.589569,281.758484 
	C480.196625,281.889557 481.811920,282.361206 481.490387,284.332367 
	C481.239380,285.871063 479.695679,286.160278 478.283905,286.040283 
	C466.192780,285.012207 454.102234,283.976685 442.014038,282.914581 
	C428.603363,281.736298 415.196594,280.513184 401.785004,279.345520 
	C399.367859,279.135071 396.771698,279.612915 395.027802,277.432709 
	C395.124115,275.069031 396.595276,274.871582 398.177856,275.008881 
	C414.898621,276.459656 431.616486,277.944031 448.336823,279.399536 
	C453.471191,279.846466 458.610840,280.233185 464.209747,280.652344 
z"/>
<path fill="#000000" opacity="1.000000" stroke="none" 
	d="
M360.984741,235.300079 
	C344.153900,233.907944 327.787781,232.526169 311.421722,231.144119 
	C311.256042,231.130127 311.074219,231.151810 310.927704,231.090515 
	C309.138885,230.342133 305.603485,231.363449 306.075958,228.315247 
	C306.512390,225.499466 309.671051,226.810242 311.632416,226.965027 
	C330.977875,228.491745 350.315674,230.115707 369.654510,231.725571 
	C373.125885,232.014542 376.593048,232.355804 380.060333,232.691437 
	C381.698639,232.850021 383.936584,232.835342 383.683533,235.055679 
	C383.407196,237.480774 381.131378,237.083954 379.285614,236.912994 
	C373.341736,236.362503 367.395081,235.842300 360.984741,235.300079 
z"/>
<path fill="#000000" opacity="1.000000" stroke="none" 
	d="
M336.521057,412.255432 
	C339.784088,412.543427 342.615753,412.609253 345.414185,412.949005 
	C346.856842,413.124115 348.640442,413.582367 348.242004,415.636932 
	C347.917725,417.309113 346.329102,417.282715 344.986420,417.159912 
	C332.099731,415.981079 319.219818,414.726196 306.329529,413.588745 
	C297.068939,412.771515 287.795715,412.097290 278.527435,411.367828 
	C277.698761,411.302612 276.860474,411.345245 276.034973,411.258575 
	C274.630829,411.111115 273.193298,410.639252 273.250885,409.011108 
	C273.322632,406.982300 275.016357,406.890808 276.571838,407.010986 
	C283.517609,407.547760 290.464508,408.075500 297.404388,408.682159 
	C310.297333,409.809235 323.185669,410.988953 336.521057,412.255432 
z"/>
<path fill="#000000" opacity="1.000000" stroke="none" 
	d="
M316.744507,371.009827 
	C315.291779,370.376770 314.086212,369.863281 314.585144,368.368073 
	C315.031036,367.031708 316.257172,366.855011 317.471832,366.954041 
	C329.883698,367.965607 342.297028,368.960876 354.703979,370.030121 
	C364.132172,370.842621 373.552734,371.744873 382.974152,372.634155 
	C384.550781,372.782959 386.864105,372.451874 386.677734,374.830048 
	C386.499756,377.101227 384.350311,376.649323 382.701385,376.506561 
	C363.673523,374.859528 344.646454,373.202606 325.616516,371.580170 
	C322.800476,371.340057 319.970428,371.264496 316.744507,371.009827 
z"/>
<path fill="#000000" opacity="1.000000" stroke="none" 
	d="
M516.047729,295.673523 
	C524.795410,296.366028 533.075439,297.049744 541.354431,297.746002 
	C542.897644,297.875763 544.702148,298.156860 544.609497,300.058167 
	C544.495239,302.403015 542.456482,302.154266 540.792542,302.008270 
	C526.886414,300.787720 512.982300,299.544342 499.076996,298.314026 
	C497.409302,298.166473 495.272644,298.206909 495.503326,295.909454 
	C495.705322,293.897430 497.693237,294.395020 499.162354,294.500122 
	C504.634705,294.891815 510.107269,295.279724 516.047729,295.673523 
z"/>
<path fill="#000000" opacity="1.000000" stroke="none" 
	d="
M578.955139,340.312378 
	C575.586609,340.105225 572.551025,340.352600 570.153748,338.200623 
	C570.487793,335.222015 572.660034,335.641846 574.326233,335.760864 
	C582.598328,336.351929 590.861389,337.070862 599.124634,337.780670 
	C600.720154,337.917725 602.317322,338.492310 601.919128,340.447632 
	C601.528442,342.365570 599.743225,342.151886 598.236450,342.018250 
	C591.961121,341.461761 585.687378,340.888336 578.955139,340.312378 
z"/>
<path fill="#000000" opacity="1.000000" stroke="none" 
	d="
M499.006653,321.700623 
	C503.251556,322.066833 507.035431,322.399353 510.812836,322.794312 
	C512.148743,322.933960 513.648743,323.233734 513.704041,324.896393 
	C513.759460,326.559875 512.322449,327.218872 510.969879,327.096161 
	C502.101501,326.291809 493.242188,325.383759 484.386444,324.447784 
	C483.233246,324.325867 482.075745,323.895813 482.076141,321.696625 
	C487.418671,318.921326 493.061066,322.284363 499.006653,321.700623 
z"/>
<path fill="#000000" opacity="1.000000" stroke="none" 
	d="
M419.166748,311.665344 
	C424.601257,312.051270 429.579559,312.364319 434.540955,312.850159 
	C436.126740,313.005402 438.285156,313.233490 437.901093,315.557556 
	C437.585297,317.468475 435.689453,317.194305 434.191010,317.078125 
	C426.570770,316.487427 418.949463,315.908051 411.333313,315.267670 
	C409.238281,315.091522 406.894043,315.149414 406.263489,311.881317 
	C410.375610,309.151001 414.625153,312.171631 419.166748,311.665344 
z"/>
<path fill="#000000" opacity="1.000000" stroke="none" 
	d="
M554.862061,312.749573 
	C559.112488,313.119812 562.903259,313.432190 566.685913,313.822968 
	C568.127075,313.971863 569.320923,314.651611 569.176880,316.319763 
	C569.051697,317.768982 567.867004,318.169189 566.622864,318.055634 
	C558.064331,317.274567 549.505615,316.488708 540.958557,315.594238 
	C539.608032,315.452881 537.437378,315.576569 537.589661,313.510651 
	C537.764771,311.134735 540.019714,311.682739 541.542114,311.760620 
	C545.832947,311.980133 550.114136,312.388824 554.862061,312.749573 
z"/>
<path fill="#000000" opacity="1.000000" stroke="none" 
	d="
M622.684814,304.379700 
	C617.071228,304.276550 611.921753,304.180237 606.544983,301.910583 
	C611.188904,298.596924 636.425293,300.853638 639.387085,304.742188 
	C633.715698,306.107178 628.430420,305.197296 622.684814,304.379700 
z"/>
<path fill="#000000" opacity="1.000000" stroke="none" 
	d="
M111.878983,254.628632 
	C122.989075,259.252869 127.443207,267.138947 125.755646,278.524414 
	C125.536896,280.000275 125.413361,281.496735 125.349243,282.988068 
	C124.751450,296.893188 112.904144,305.757324 99.463417,302.173126 
	C88.748116,299.315704 80.728119,293.061127 76.133415,282.772522 
	C74.174362,278.385742 74.302696,274.126129 76.655464,269.852570 
	C82.641670,258.979248 99.236275,251.628128 111.878983,254.628632 
z"/>
<path fill="#000000" opacity="1.000000" stroke="none" 
	d="
M255.710388,300.336060 
	C236.199158,299.967041 217.760391,295.569519 199.228729,291.800232 
	C195.816528,291.106262 192.435242,290.245667 189.065292,289.363983 
	C187.093018,288.848053 185.856155,287.484497 185.924103,285.398956 
	C185.999100,283.097443 187.432327,281.763794 189.643585,281.358093 
	C190.946045,281.119141 192.282211,280.994049 193.607040,280.957550 
	C212.379776,280.440399 231.150864,279.047668 249.930176,280.699005 
	C252.569031,280.931061 255.188614,281.441223 257.796295,281.933014 
	C258.584991,282.081726 259.503845,282.418091 260.022186,282.981903 
	C263.665588,286.945129 260.755341,291.553711 261.044281,295.847809 
	C261.232910,298.650635 259.214142,300.364075 255.710388,300.336060 
z"/>
<path fill="#000000" opacity="1.000000" stroke="none" 
	d="
M170.832504,286.258667 
	C161.457657,285.490692 152.524307,284.826233 143.623520,283.861298 
	C141.824234,283.666229 138.443237,284.134674 139.048569,280.821289 
	C139.518097,278.251282 142.130463,279.155182 144.094269,279.336304 
	C153.007980,280.158264 161.928024,280.912262 170.846924,281.677277 
	C172.234329,281.796234 173.655502,282.040924 173.969910,283.602600 
	C174.378311,285.631226 172.945786,286.138672 170.832504,286.258667 
z"/>
<path fill="#000000" opacity="1.000000" stroke="none" 
	d="
M193.533203,300.905823 
	C195.076584,301.533630 196.028961,302.289062 195.747253,303.649567 
	C195.455276,305.059631 194.179810,305.325470 192.993698,305.260651 
	C186.018661,304.879333 179.041992,304.499512 172.078400,303.958160 
	C170.410721,303.828522 168.513535,303.069946 169.103653,300.843658 
	C169.628738,298.862671 171.512161,298.881165 173.247040,299.037872 
	C179.868347,299.635895 186.490997,300.219238 193.533203,300.905823 
z"/>
<path fill="#000000" opacity="1.000000" stroke="none" 
	d="
M139.083939,301.213684 
	C136.168243,300.871002 133.696075,300.566650 131.226440,300.242767 
	C129.773819,300.052307 128.632172,299.467407 128.702652,297.767426 
	C128.763840,296.291748 129.839996,295.848816 131.091202,295.758362 
	C136.603928,295.359802 141.987610,296.719452 147.451889,297.034851 
	C148.804520,297.112915 149.950012,298.153625 149.683914,299.798279 
	C149.449585,301.246704 148.194565,301.493713 147.004959,301.484192 
	C144.512329,301.464142 142.020615,301.330688 139.083939,301.213684 
z"/>
<path fill="#000000" opacity="1.000000" stroke="none" 
	d="
M133.370987,265.227020 
	C130.044983,262.675354 131.659256,261.092590 134.300186,261.133514 
	C139.402313,261.212524 144.496918,261.984528 149.586411,262.544281 
	C151.108383,262.711700 152.783920,263.185913 152.525208,265.154785 
	C152.274216,267.064941 150.542740,267.195770 149.026794,267.040802 
	C143.931808,266.519867 138.846497,265.904205 133.370987,265.227020 
z"/>
<path fill="#000000" opacity="1.000000" stroke="none" 
	d="
M258.577301,151.852631 
	C255.705505,152.851196 253.119308,153.542206 250.682114,154.582367 
	C247.218475,156.060608 246.603882,154.374985 246.663101,150.748428 
	C251.931122,152.048126 255.989868,147.386780 261.000092,147.864059 
	C261.976624,150.763046 260.151703,151.008972 258.577301,151.852631 
z"/>
<path fill="#000000" opacity="1.000000" stroke="none" 
	d="
M257.572479,164.363983 
	C253.830673,164.563232 253.873779,162.817673 255.565002,160.818024 
	C256.817627,159.336960 258.547455,158.203888 260.992249,158.415253 
	C261.832733,161.389862 260.082367,162.938278 257.572479,164.363983 
z"/>
<path fill="#000000" opacity="1.000000" stroke="none" 
	d="
M298.228607,143.657562 
	C296.112640,144.254440 294.370880,144.770142 292.521515,143.559052 
	C292.778595,140.669815 294.791992,139.926010 297.210968,139.746506 
	C298.551361,139.647049 299.953644,139.773346 300.481506,141.296021 
	C301.048828,142.932327 299.645691,143.119263 298.228607,143.657562 
z"/>
<path fill="#000000" opacity="1.000000" stroke="none" 
	d="
M161.303833,108.096909 
	C164.157822,107.566414 166.590759,107.074852 169.043350,106.718201 
	C171.639343,106.340668 174.314041,106.357872 175.062744,109.541153 
	C175.758408,112.499008 173.486145,113.510780 171.180679,114.384476 
	C165.289413,116.617081 159.083511,116.080406 152.992523,116.616699 
	C143.855011,117.421219 135.167313,120.303604 126.366142,122.646767 
	C123.379120,123.442001 119.982002,124.292908 119.005112,120.235222 
	C118.146713,116.669678 121.138016,115.313118 124.031876,114.688545 
	C132.607254,112.837769 140.646057,108.990578 149.523636,108.174911 
	C153.355103,107.822876 157.113251,109.519661 161.303833,108.096909 
z"/>
<path fill="#000000" opacity="1.000000" stroke="none" 
	d="
M185.267120,70.970932 
	C181.039429,75.800537 177.291595,76.726608 172.343964,74.566124 
	C169.720108,73.420364 167.910568,71.694283 167.723373,68.679893 
	C167.533142,65.616760 169.302032,63.863415 171.726349,62.371132 
	C175.861038,59.826046 179.738480,60.692692 183.330078,63.241867 
	C185.815384,65.005859 186.989807,67.516144 185.267120,70.970932 
z"/>
<path fill="#000000" opacity="1.000000" stroke="none" 
	d="
M114.387436,87.117966 
	C111.465744,86.281044 109.419395,85.088074 109.510643,81.996140 
	C109.602371,78.887894 111.601486,77.271187 114.194656,76.290077 
	C116.931480,75.254616 119.730339,75.037659 122.023079,77.300110 
	C124.402863,79.648445 123.608566,83.604179 120.402977,85.755951 
	C118.717361,86.887421 116.841606,87.435860 114.387436,87.117966 
z"/>
</svg>